<svg width="15" height="16" viewBox="0 0 15 16" fill="none" xmlns="http://www.w3.org/2000/svg">
<g clip-path="url(#clip0_3871_177)">
<path d="M13.0469 15.4984H1.95312C0.874606 15.4984 0 14.6239 0 13.5455V2.45292C0 1.37452 0.874606 0.5 1.95312 0.5H13.0469C14.1254 0.5 15 1.37452 15 2.45292V13.5455C15 14.6243 14.1254 15.4984 13.0469 15.4984Z" fill="#C1BEBE"/>
<path d="M7.07775 4.50739C7.13869 4.33593 7.143 4.15392 7.17425 3.97698C7.20194 3.82036 7.22306 3.66217 7.24062 3.50398C7.25075 3.41259 7.25938 3.32041 7.26644 3.22901C7.2875 2.95521 7.30237 2.68063 7.31875 2.40683C7.35663 1.77135 7.37619 1.13548 7.40625 0.5C7.46875 0.5 7.53125 0.5 7.59375 0.5C7.60156 0.714431 7.61175 0.928471 7.61719 1.1429C7.63244 1.73073 7.66637 2.31778 7.70312 2.90482C7.725 3.25245 7.7535 3.59967 7.80781 3.943C7.86331 4.29179 7.9215 4.64214 8.04338 4.97688C8.11175 5.23388 8.21406 5.47644 8.34219 5.70961C8.8035 6.54898 9.49606 7.10944 10.3976 7.41844C11.1809 7.68675 11.9969 7.75469 12.8144 7.81175C13.5422 7.8625 14.2715 7.87463 15 7.90625C15 7.96875 15 8.03125 15 8.09375C14.2715 8.12537 13.5422 8.1375 12.8148 8.18825C12.025 8.24294 11.2356 8.30775 10.4762 8.55581C9.17575 8.98075 8.36094 9.86819 7.99337 11.177C7.82694 11.7691 7.76012 12.3773 7.71094 12.9881C7.64375 13.824 7.62887 14.6626 7.59375 15.5C7.53125 15.5 7.46875 15.5 7.40625 15.5C7.375 14.7716 7.3625 14.0423 7.31213 13.3151C7.25744 12.5249 7.19256 11.7359 6.9445 10.9766C6.5195 9.67638 5.63164 8.86162 4.32304 8.49406C3.73086 8.32769 3.12266 8.26094 2.51172 8.21206C1.67578 8.14494 0.837113 8.13044 0 8.0945C0 8.032 0 7.96956 0 7.90706C0.377734 7.89256 0.755469 7.87813 1.13321 7.86369C1.98633 7.83088 2.83906 7.79338 3.68281 7.64925C4.37304 7.53131 5.03047 7.32744 5.60469 6.90831C6.42462 6.30877 6.88363 5.48933 7.07775 4.50739Z" fill="#FDFDFD"/>
</g>
<defs>
<clipPath id="clip0_3871_177">
<rect width="15" height="15" fill="white" transform="translate(0 0.5)"/>
</clipPath>
</defs>
</svg>
