<svg width="35" height="32" viewBox="0 0 35 32" fill="none" xmlns="http://www.w3.org/2000/svg">
<path d="M18.6627 1H28.9325C30.2742 1.00385 31.5599 1.54411 32.5092 2.50292C33.4584 3.46173 33.9942 4.76125 33.9995 6.11797V6.11797C33.9957 7.47544 33.4605 8.77615 32.511 9.73576C31.5615 10.6954 30.2749 11.2358 28.9325 11.2389H27.6058L23.7152 15.1789V11.2447H18.6627C17.3193 11.2416 16.0318 10.7004 15.0821 9.73954C14.1325 8.77867 13.598 7.47645 13.5957 6.11797V6.11797C13.601 4.76125 14.1368 3.46173 15.086 2.50292C16.0353 1.54411 17.321 1.00385 18.6627 1V1Z" stroke="#233255" stroke-width="1.06149" stroke-miterlimit="10"/>
<path d="M18.0908 4.80469H29.1573" stroke="#233255" stroke-width="1.06149" stroke-miterlimit="10"/>
<path d="M18.0908 7.91602H23.6241" stroke="#233255" stroke-width="1.06149" stroke-miterlimit="10"/>
<path d="M16.3363 15.8613H6.0665C4.72482 15.8652 3.4391 16.4054 2.48984 17.3642C1.54059 18.3231 1.00485 19.6226 0.999514 20.9793V20.9793C1.00333 22.3368 1.53849 23.6375 2.48799 24.5971C3.43749 25.5567 4.72409 26.0971 6.0665 26.1002H7.39323L11.2838 30.0402V26.106H16.3363C17.6797 26.1029 18.9672 25.5617 19.9169 24.6009C20.8665 23.64 21.401 22.3378 21.4033 20.9793V20.9793C21.398 19.6226 20.8622 18.3231 19.913 17.3642C18.9637 16.4054 17.678 15.8652 16.3363 15.8613V15.8613Z" stroke="#233255" stroke-width="1.06149" stroke-miterlimit="10"/>
<path d="M5.84082 19.666H16.9073" stroke="#233255" stroke-width="1.06149" stroke-miterlimit="10"/>
<path d="M5.84082 22.7773H11.3741" stroke="#233255" stroke-width="1.06149" stroke-miterlimit="10"/>
</svg>
