<svg width="260" height="29" viewBox="0 0 260 29" fill="none" xmlns="http://www.w3.org/2000/svg">
<rect width="260" height="29" fill="white"/>
<path d="M35.8965 17.2957C35.8965 18.8539 35.4559 19.9385 34.7321 20.6871C34.0084 21.3898 32.9857 21.8175 31.7269 21.8175C30.657 21.8175 29.7444 21.5884 29.1623 20.9162C28.5801 20.351 28.2339 19.4497 28.2339 18.3345V10.0393H25.7637V18.5025C25.7637 20.1982 26.2514 21.5578 27.2742 22.5966C28.2969 23.6354 29.6028 24.1548 31.2549 24.1548C33.3318 24.1548 34.8423 23.3605 35.8178 21.8023V23.7271H38.3353V10.0393H35.865L35.8965 17.2957Z" fill="#233255"/>
<path d="M45.5889 10.0393H43.1187V23.7271H45.5889V10.0393Z" fill="#233255"/>
<path d="M44.3298 4.3562C43.8893 4.3562 43.5116 4.49369 43.1655 4.82977C42.8193 5.16586 42.6777 5.5325 42.6777 5.96024C42.6777 6.38798 42.8193 6.75462 43.1655 7.09071C43.5116 7.42679 43.8421 7.56428 44.3298 7.56428C44.8176 7.56428 45.148 7.42679 45.4942 7.09071C45.8403 6.75462 45.9819 6.38798 45.9819 5.96024C45.9819 5.5325 45.8403 5.15058 45.4942 4.82977C45.2109 4.49369 44.7704 4.3562 44.3298 4.3562Z" fill="#233255"/>
<path d="M59.702 20.8243C58.9783 21.252 58.0499 21.4812 57.1374 21.4812C55.737 21.4812 54.4783 21.0534 53.55 20.1216C52.6217 19.1744 52.1496 18.044 52.1496 16.6385C52.1496 15.2331 52.6374 14.1484 53.55 13.1555C54.5727 12.2541 55.6898 11.7958 57.1374 11.7958C58.0657 11.7958 58.8839 11.9333 59.6076 12.4527C60.3314 12.9263 60.9136 13.4915 61.2597 14.2401L63.3366 13.1096C62.7545 12.0708 61.9363 11.1848 60.8664 10.5279C59.7964 9.871 58.5377 9.53491 57.1374 9.53491C54.9975 9.53491 53.2668 10.2376 51.8035 11.6125C50.4975 12.9721 49.7266 14.7595 49.7266 16.7913C49.7266 18.8689 50.4031 20.5493 51.8035 21.97C53.2038 23.3296 54.9503 24.0476 57.1374 24.0476C58.4433 24.0476 59.702 23.7116 60.9608 22.8255C62.0307 22.1686 62.9433 21.2673 63.5255 20.2438L61.4485 19.0217C61.008 19.7855 60.4258 20.4424 59.702 20.8243Z" fill="#233255"/>
<path d="M71.9115 16.6387L78.5986 10.0392H75.4517L69.3941 16.0581V4.58545H66.9238V23.7422H69.3941V17.2039L75.8923 23.7422H78.9447L71.9115 16.6387Z" fill="#233255"/>
<path d="M93.8767 13.8124C95.277 12.8194 96.0165 11.4598 95.9536 9.76407C95.9536 8.31279 95.4658 7.02956 94.3487 6.05186C93.2788 5.01306 92.0201 4.49365 90.4781 4.49365H82.5796V23.6505H91.1547C92.7596 23.6505 94.1599 23.1769 95.2298 22.0923C96.2997 21.0534 96.8819 19.7397 96.8819 18.2273C96.8819 17.1885 96.5357 16.3024 96.0637 15.4928C95.513 14.897 94.7893 14.2401 93.8767 13.8124ZM85.1442 6.98373H90.4781C91.2963 6.98373 91.9886 7.21288 92.555 7.77811C93.1372 8.34335 93.3732 9.04607 93.3732 9.85572C93.3732 10.6654 93.1372 11.4139 92.5707 11.9333C91.9886 12.4986 91.312 12.8347 90.4938 12.8347H85.16V6.98373H85.1442ZM93.3889 20.4424C92.8068 21.0076 92.083 21.3437 91.1547 21.3437H85.2387V15.1261H91.1547C92.083 15.1261 92.8068 15.4622 93.3889 16.0275C93.9711 16.5927 94.3172 17.2954 94.3172 18.1967C94.3015 19.0828 93.9711 19.8771 93.3889 20.4424Z" fill="#1E6599"/>
<path d="M108.226 4.58545H101.004V23.7422H103.663V16.8678H108.226C110.067 16.8678 111.515 16.2109 112.789 15.0804C114.048 13.95 114.63 12.4987 114.63 10.7572C114.63 8.96982 114.048 7.56438 112.789 6.32698C111.562 5.15068 110.067 4.58545 108.226 4.58545ZM110.98 13.4306C110.256 14.1333 109.328 14.4694 108.258 14.4694L103.695 14.561V6.98387H108.258C109.328 6.98387 110.24 7.31995 110.98 8.02267C111.704 8.7254 112.05 9.62671 112.05 10.7572C112.05 11.8418 111.704 12.682 110.98 13.4306Z" fill="#1E6599"/>
<path d="M134.345 4.58545L128.146 14.6985L121.837 4.58545H118.832V23.7422H121.491V8.81706L127.942 19.2204H128.288L134.786 8.77123V23.7422H137.351V4.58545H134.345Z" fill="#1E6599"/>
<path d="M13.6011 17.2039V24.1241H21.7514L13.6011 17.2039Z" fill="#FABE00"/>
<path d="M12 6.43411C16.1422 6.43411 19.5734 9.87597 19.5734 14.031C19.5734 15.845 18.9088 17.4729 17.9505 18.7132L17.8578 18.8062L19.7125 20.4341L19.8053 20.3411C21.1808 18.6202 22 16.4186 22 14.031C22 8.49612 17.5178 4 12 4C6.48223 4 2 8.3876 2 13.969C2 19.5504 6.48223 24 12 24V21.6124C7.85781 21.6124 4.42658 18.1705 4.42658 14.0155C4.42658 9.86047 7.85781 6.43411 12 6.43411Z" fill="#1E6599"/>
<path d="M146.495 12.4583C146.036 12.4583 145.642 12.6045 145.281 12.9619C144.921 13.3193 144.773 13.7092 144.773 14.1641C144.773 14.619 144.921 15.009 145.281 15.3664C145.642 15.7238 145.986 15.87 146.495 15.87C147.003 15.87 147.348 15.7238 147.708 15.3664C148.069 15.009 148.217 14.619 148.217 14.1641C148.217 13.7092 148.069 13.3031 147.708 12.9619C147.413 12.6045 146.954 12.4583 146.495 12.4583Z" fill="#233255"/>
<path d="M163.555 23.6147C166.255 23.6147 168.486 22.5502 170.25 20.3667L168.927 19.5479C168.321 20.3667 167.55 20.9944 166.613 21.4857C165.649 21.977 164.629 22.1954 163.555 22.1954C161.351 22.1954 159.533 21.4584 158.073 19.9573C156.612 18.4561 155.896 16.5455 155.896 14.1982C155.896 11.8509 156.612 9.94033 158.073 8.43915C159.533 6.96527 161.351 6.20103 163.555 6.20103C164.629 6.20103 165.649 6.44668 166.613 6.93797C167.55 7.42927 168.321 8.05703 168.927 8.84856L170.25 8.00244C168.486 5.8735 166.255 4.78174 163.555 4.78174C160.91 4.78174 158.679 5.68244 156.915 7.42927C155.125 9.17609 154.243 11.4415 154.243 14.1982C154.243 16.9822 155.125 19.2476 156.915 20.9944C158.679 22.7413 160.91 23.6147 163.555 23.6147Z" fill="#233255"/>
<path d="M183.801 23.2872V10.1041H173.387V23.2872H174.819V11.3596H182.368V23.2872H183.801Z" fill="#233255"/>
<path d="M194.326 23.6147C196.089 23.6147 197.521 22.9869 198.623 21.7314C199.725 20.4759 200.276 18.7836 200.276 16.682C200.276 14.5803 199.725 12.9154 198.623 11.6599C197.521 10.4043 196.089 9.77656 194.326 9.77656C193.361 9.77656 192.48 10.0222 191.653 10.4589C190.827 10.8956 190.193 11.4688 189.697 12.1784V10.1041H188.265V28.3093H189.697V21.1582C190.854 22.7959 192.397 23.6147 194.326 23.6147ZM194.078 22.3319C193.196 22.3319 192.342 22.1135 191.515 21.6222C190.689 21.1582 190.083 20.585 189.697 19.93V13.4067C190.083 12.7516 190.689 12.2057 191.515 11.7417C192.314 11.305 193.168 11.0594 194.078 11.0594C195.51 11.0594 196.667 11.6053 197.494 12.6424C198.32 13.7069 198.734 15.0443 198.734 16.682C198.734 18.3469 198.32 19.7116 197.494 20.7488C196.667 21.8133 195.51 22.3319 194.078 22.3319Z" fill="#233255"/>
<path d="M213.786 23.2872V14.0071C213.786 12.6151 213.318 11.5507 212.436 10.841C211.527 10.1314 210.37 9.77656 208.937 9.77656C206.899 9.77656 205.191 10.5135 203.813 11.9874L204.612 12.97C205.742 11.6872 207.119 11.0321 208.772 11.0321C209.791 11.0321 210.646 11.305 211.334 11.8509C211.995 12.3968 212.354 13.1337 212.354 14.0617V16.7366C211.196 15.481 209.709 14.8533 207.835 14.8533C206.568 14.8533 205.494 15.2627 204.557 16.0269C203.62 16.7912 203.18 17.8556 203.18 19.2203C203.18 20.585 203.648 21.6495 204.585 22.441C205.521 23.2326 206.596 23.6147 207.835 23.6147C209.681 23.6147 211.196 22.9869 212.354 21.7314V23.2872H213.786ZM208.331 22.4956C207.229 22.4956 206.348 22.1954 205.687 21.5949C205.025 20.9944 204.695 20.2029 204.695 19.2476C204.695 18.3196 205.025 17.5281 205.687 16.9003C206.348 16.2999 207.229 15.9723 208.331 15.9723C210.039 15.9723 211.389 16.6001 212.354 17.801V20.6942C211.417 21.8951 210.067 22.4956 208.331 22.4956Z" fill="#233255"/>
<path d="M225.205 23.2872C226.362 23.2872 227.271 22.9869 227.932 22.3319C228.594 21.7041 228.952 20.8307 228.952 19.7116C228.952 19.002 228.704 18.3196 228.263 17.6919C227.795 17.0914 227.244 16.682 226.583 16.4909C227.161 16.3272 227.657 15.9723 228.07 15.4264C228.483 14.8806 228.704 14.2528 228.704 13.4886C228.704 12.4514 228.373 11.6326 227.712 11.0321C227.051 10.4316 226.197 10.1041 225.095 10.1041H218.263V23.2872H225.205ZM224.902 22.0043H219.695V17.1187H224.902C225.673 17.1187 226.307 17.3643 226.748 17.8556C227.189 18.3469 227.437 18.9474 227.437 19.6024C227.437 20.3667 227.189 20.9399 226.748 21.3766C226.307 21.8133 225.673 22.0043 224.902 22.0043ZM224.847 15.8632H219.695V11.3596H224.847C225.591 11.3596 226.169 11.578 226.583 11.9874C226.996 12.3968 227.216 12.9427 227.216 13.625C227.216 14.2801 226.996 14.826 226.583 15.2354C226.169 15.6721 225.591 15.8632 224.847 15.8632Z" fill="#233255"/>
<path d="M244.325 23.2872L238.154 16.0542L244.353 10.1041H242.452L234.6 17.6373V10.1041H233.167V23.2872H234.6V19.3295L237.079 17.0095L242.396 23.2872H244.325Z" fill="#233255"/>
<path d="M256.967 23.2872V14.0071C256.967 12.6151 256.499 11.5507 255.617 10.841C254.708 10.1314 253.551 9.77656 252.118 9.77656C250.08 9.77656 248.372 10.5135 246.994 11.9874L247.793 12.97C248.923 11.6872 250.3 11.0321 251.953 11.0321C252.972 11.0321 253.826 11.305 254.515 11.8509C255.176 12.3968 255.534 13.1337 255.534 14.0617V16.7366C254.377 15.481 252.89 14.8533 251.016 14.8533C249.749 14.8533 248.675 15.2627 247.738 16.0269C246.801 16.7912 246.36 17.8556 246.36 19.2203C246.36 20.585 246.829 21.6495 247.765 22.441C248.702 23.2326 249.777 23.6147 251.016 23.6147C252.862 23.6147 254.377 22.9869 255.534 21.7314V23.2872H256.967ZM251.512 22.4956C250.41 22.4956 249.529 22.1954 248.867 21.5949C248.206 20.9944 247.876 20.2029 247.876 19.2476C247.876 18.3196 248.206 17.5281 248.867 16.9003C249.529 16.2999 250.41 15.9723 251.512 15.9723C253.22 15.9723 254.57 16.6001 255.534 17.801V20.6942C254.598 21.8951 253.248 22.4956 251.512 22.4956Z" fill="#233255"/>
</svg>
