<svg width="32" height="32" viewBox="0 0 32 32" fill="none" xmlns="http://www.w3.org/2000/svg">
<path fill-rule="evenodd" clip-rule="evenodd" d="M3.6205 4.80001C3.63453 4.79989 3.64837 4.80024 3.66198 4.80102C4.58159 4.8053 15.8764 4.80115 18.3485 4.80019C18.7946 4.80001 19.2078 5.04765 19.3997 5.46691C20.0511 6.88997 20.8241 9.3707 20.8241 11.6C20.8241 12.6433 20.5929 14.0667 20.2907 15.5507C19.9965 15.6093 19.7083 15.6845 19.4271 15.7753C19.7638 14.1715 20.0241 12.657 20.0241 11.6C20.0241 9.52086 19.2931 7.15611 18.6723 5.79988C18.6168 5.67878 18.497 5.60013 18.3488 5.60019C16.2487 5.60101 7.76269 5.60413 4.7038 5.60241L4.71462 5.61716C5.02833 6.04666 5.35977 6.63828 5.65671 7.33225C6.2498 8.71836 6.72672 10.5636 6.62345 12.4222C6.46919 15.1983 5.80109 16.9478 5.17517 18.3246C5.07818 18.538 4.98393 18.7396 4.89385 18.9322C4.395 19.999 4.02406 20.7923 4.02406 21.8C4.02406 22.7061 4.31522 23.4507 4.67652 23.9937C5.04662 24.5498 5.46257 24.8554 5.67213 24.9311L5.67565 24.9317C5.68218 24.9325 5.69329 24.9333 5.71194 24.9333H14.2175C14.2793 25.2057 14.3553 25.4726 14.4448 25.7333H5.71194C5.63464 25.7333 5.5241 25.7276 5.40658 25.6858L5.54058 25.3089L5.40658 25.6858C4.97854 25.5336 4.43804 25.0793 4.01052 24.4369C3.57276 23.7791 3.22406 22.8825 3.22406 21.8C3.22406 20.6001 3.68171 19.627 4.18196 18.5634L4.18199 18.5633C4.26973 18.3767 4.35878 18.1874 4.44689 17.9936C5.04563 16.6765 5.67753 15.026 5.82468 12.3778C5.91937 10.6737 5.48001 8.95292 4.92121 7.64696C4.6422 6.99489 4.3388 6.45896 4.0686 6.08902C3.9329 5.90324 3.81268 5.76914 3.71571 5.68399C3.65225 5.62827 3.61463 5.60751 3.60135 5.60058L3.58547 5.60019L3.57601 5.59972L3.57581 5.5997H3.57581C3.57378 5.59958 3.56088 5.59882 3.54508 5.59662C3.54011 5.59593 3.53142 5.59463 3.52069 5.59246C3.51302 5.5909 3.4894 5.58602 3.46055 5.57528C3.44663 5.5701 3.41772 5.55857 3.38465 5.53742C3.35953 5.52136 3.28159 5.46872 3.23454 5.36274C3.17208 5.22206 3.20094 5.07692 3.2685 4.97675C3.32008 4.90028 3.38385 4.86304 3.40516 4.85114C3.45217 4.8249 3.49401 4.81459 3.50285 4.81242L3.50361 4.81223C3.51873 4.80847 3.5309 4.80639 3.53693 4.80543C3.54946 4.80342 3.55936 4.80247 3.563 4.80212C3.57149 4.80133 3.57821 4.80098 3.58025 4.80088L3.58732 4.80057L3.59498 4.80035L3.6205 4.80001Z" fill="#394149"/>
<path d="M18.0407 21.562C17.6813 22.9511 18.5295 24.3703 19.9308 24.7262C21.3321 25.0821 22.7648 24.2422 23.1242 22.8531C23.4836 21.464 22.6354 20.0448 21.2341 19.6889C19.8328 19.333 18.4001 20.1729 18.0407 21.562ZM18.7923 21.7529C19.0452 20.7754 20.0539 20.1834 21.0413 20.4342C22.0286 20.6849 22.6255 21.6847 22.3726 22.6622C22.1197 23.6397 21.111 24.2316 20.1236 23.9809C19.1363 23.7301 18.5394 22.7304 18.7923 21.7529Z" fill="#2574B7" stroke="#2574B7" stroke-width="0.08"/>
<mask id="path-3-outside-1" maskUnits="userSpaceOnUse" x="12.3297" y="13.8333" width="15.8562" height="15.7857" fill="black">
<rect fill="white" x="12.3297" y="13.8333" width="15.8562" height="15.7857"/>
<path d="M19.4686 27.9979L18.7467 27.8146C18.1627 27.6663 17.8094 27.0749 17.9591 26.4964L18.0217 26.2544C17.7938 26.1127 17.5783 25.9523 17.3773 25.7746L17.1598 25.9021C16.633 26.2115 15.9646 26.0288 15.662 25.5216L15.2825 24.8864C14.9792 24.3793 15.1395 23.7111 15.6666 23.4024L15.8839 23.275C15.8234 23.0149 15.7851 22.7506 15.7695 22.4844L15.5252 22.4224C14.9413 22.2741 14.588 21.6827 14.7377 21.1042L14.9228 20.3888C15.0725 19.8103 15.6693 19.4602 16.2533 19.6086L16.4975 19.6706C16.6405 19.4447 16.8024 19.2312 16.9817 19.0321L16.853 18.8166C16.541 18.295 16.7247 17.6328 17.2371 17.3326L17.8782 16.9566C18.3909 16.6555 19.065 16.8159 19.376 17.3372L19.5046 17.5525C19.7671 17.4925 20.0339 17.4546 20.3025 17.439L20.3651 17.1971C20.5148 16.6185 21.1116 16.2685 21.6956 16.4168L22.4176 16.6002C23.0015 16.7485 23.3548 17.3398 23.2051 17.9184L23.1425 18.1604C23.3704 18.302 23.5859 18.4625 23.7869 18.6401L24.0044 18.5126C24.5312 18.2032 25.1996 18.3859 25.5022 18.8932L25.8817 19.5283C26.185 20.0355 26.0247 20.7036 25.4976 21.0123L25.2803 21.1398C25.3408 21.3998 25.3791 21.6642 25.3948 21.9303L25.639 21.9923C26.2229 22.1407 26.5762 22.732 26.4266 23.3106L26.2415 24.0259C26.0918 24.6045 25.4949 24.9545 24.911 24.8062L24.6668 24.7441C24.5238 24.97 24.3619 25.1835 24.1825 25.3826L24.3113 25.5981C24.6233 26.1197 24.4396 26.782 23.9272 27.0821L23.286 27.4581C22.7733 27.7593 22.0993 27.5989 21.7882 27.0775L21.6596 26.8623C21.3972 26.9222 21.1303 26.9602 20.8617 26.9757L20.7991 27.2177C20.6494 27.7962 20.0526 28.1462 19.4686 27.9979ZM17.6714 25.1019C17.9445 25.3723 18.2541 25.6028 18.5916 25.787C18.7306 25.8628 18.8001 26.0222 18.7607 26.1745L18.6332 26.6676C18.5788 26.8779 18.7072 27.0928 18.9195 27.1467L19.6415 27.3301C19.8537 27.384 20.0707 27.2568 20.1251 27.0465L20.2527 26.5534C20.2921 26.4011 20.4305 26.2946 20.5891 26.2943C20.9744 26.2937 21.3578 26.2392 21.7285 26.1323C21.881 26.0884 22.0441 26.1523 22.1251 26.2877L22.3872 26.7265C22.5002 26.9159 22.7451 26.9744 22.9314 26.8649L23.573 26.4887C23.7587 26.3799 23.8262 26.1393 23.7126 25.9495L23.4504 25.5105C23.3695 25.3751 23.3914 25.2026 23.5036 25.0913C23.7765 24.8207 24.0091 24.5139 24.1951 24.1796C24.2716 24.0419 24.4325 23.9729 24.5862 24.012L25.0838 24.1384C25.296 24.1923 25.513 24.065 25.5674 23.8547L25.7525 23.1394C25.8069 22.9291 25.6785 22.7141 25.4662 22.6602L24.9686 22.5338C24.8149 22.4948 24.7074 22.3577 24.7071 22.2005C24.7065 21.8187 24.6515 21.4389 24.5436 21.0717C24.4993 20.9206 24.5638 20.7589 24.7005 20.6787L25.1433 20.419C25.3347 20.3069 25.3933 20.0641 25.283 19.8798L24.9033 19.2442C24.7933 19.0598 24.5503 18.9935 24.359 19.1058L23.916 19.3657C23.7793 19.4458 23.6052 19.4241 23.4929 19.3129C23.2198 19.0425 22.9102 18.812 22.5727 18.6278C22.4337 18.552 22.3641 18.3926 22.4035 18.2403L22.5311 17.7472C22.5855 17.5369 22.4571 17.3219 22.2448 17.268L21.5228 17.0846C21.3106 17.0307 21.0936 17.158 21.0392 17.3683L20.9116 17.8613C20.8722 18.0136 20.7338 18.1202 20.5752 18.1204C20.1899 18.121 19.8065 18.1755 19.4358 18.2824C19.2833 18.3263 19.1201 18.2624 19.0392 18.127L18.7771 17.6882C18.6641 17.4989 18.4191 17.4404 18.2329 17.5498L17.5913 17.926C17.4056 18.0348 17.3381 18.2754 17.4517 18.4653L17.7139 18.9042C17.7948 19.0397 17.7729 19.2122 17.6606 19.3235C17.3878 19.594 17.1551 19.9008 16.9692 20.2352C16.8927 20.3729 16.7318 20.4418 16.5781 20.4028L16.0805 20.2764C15.8682 20.2225 15.6512 20.3497 15.5968 20.56L15.4117 21.2754C15.3573 21.4857 15.4858 21.7006 15.698 21.7545L16.1956 21.8809C16.3493 21.92 16.4569 22.0571 16.4572 22.2143C16.4578 22.596 16.5128 22.9758 16.6206 23.3431C16.665 23.4942 16.6005 23.6559 16.4638 23.736L16.0209 23.9957C15.8295 24.1078 15.7709 24.3506 15.8813 24.535L16.261 25.1706C16.371 25.355 16.614 25.4213 16.8052 25.3089L17.2482 25.0491C17.3489 24.9901 17.5332 24.965 17.6714 25.1019Z"/>
</mask>
<path d="M19.4686 27.9979L18.7467 27.8146C18.1627 27.6663 17.8094 27.0749 17.9591 26.4964L18.0217 26.2544C17.7938 26.1127 17.5783 25.9523 17.3773 25.7746L17.1598 25.9021C16.633 26.2115 15.9646 26.0288 15.662 25.5216L15.2825 24.8864C14.9792 24.3793 15.1395 23.7111 15.6666 23.4024L15.8839 23.275C15.8234 23.0149 15.7851 22.7506 15.7695 22.4844L15.5252 22.4224C14.9413 22.2741 14.588 21.6827 14.7377 21.1042L14.9228 20.3888C15.0725 19.8103 15.6693 19.4602 16.2533 19.6086L16.4975 19.6706C16.6405 19.4447 16.8024 19.2312 16.9817 19.0321L16.853 18.8166C16.541 18.295 16.7247 17.6328 17.2371 17.3326L17.8782 16.9566C18.3909 16.6555 19.065 16.8159 19.376 17.3372L19.5046 17.5525C19.7671 17.4925 20.0339 17.4546 20.3025 17.439L20.3651 17.1971C20.5148 16.6185 21.1116 16.2685 21.6956 16.4168L22.4176 16.6002C23.0015 16.7485 23.3548 17.3398 23.2051 17.9184L23.1425 18.1604C23.3704 18.302 23.5859 18.4625 23.7869 18.6401L24.0044 18.5126C24.5312 18.2032 25.1996 18.3859 25.5022 18.8932L25.8817 19.5283C26.185 20.0355 26.0247 20.7036 25.4976 21.0123L25.2803 21.1398C25.3408 21.3998 25.3791 21.6642 25.3948 21.9303L25.639 21.9923C26.2229 22.1407 26.5762 22.732 26.4266 23.3106L26.2415 24.0259C26.0918 24.6045 25.4949 24.9545 24.911 24.8062L24.6668 24.7441C24.5238 24.97 24.3619 25.1835 24.1825 25.3826L24.3113 25.5981C24.6233 26.1197 24.4396 26.782 23.9272 27.0821L23.286 27.4581C22.7733 27.7593 22.0993 27.5989 21.7882 27.0775L21.6596 26.8623C21.3972 26.9222 21.1303 26.9602 20.8617 26.9757L20.7991 27.2177C20.6494 27.7962 20.0526 28.1462 19.4686 27.9979ZM17.6714 25.1019C17.9445 25.3723 18.2541 25.6028 18.5916 25.787C18.7306 25.8628 18.8001 26.0222 18.7607 26.1745L18.6332 26.6676C18.5788 26.8779 18.7072 27.0928 18.9195 27.1467L19.6415 27.3301C19.8537 27.384 20.0707 27.2568 20.1251 27.0465L20.2527 26.5534C20.2921 26.4011 20.4305 26.2946 20.5891 26.2943C20.9744 26.2937 21.3578 26.2392 21.7285 26.1323C21.881 26.0884 22.0441 26.1523 22.1251 26.2877L22.3872 26.7265C22.5002 26.9159 22.7451 26.9744 22.9314 26.8649L23.573 26.4887C23.7587 26.3799 23.8262 26.1393 23.7126 25.9495L23.4504 25.5105C23.3695 25.3751 23.3914 25.2026 23.5036 25.0913C23.7765 24.8207 24.0091 24.5139 24.1951 24.1796C24.2716 24.0419 24.4325 23.9729 24.5862 24.012L25.0838 24.1384C25.296 24.1923 25.513 24.065 25.5674 23.8547L25.7525 23.1394C25.8069 22.9291 25.6785 22.7141 25.4662 22.6602L24.9686 22.5338C24.8149 22.4948 24.7074 22.3577 24.7071 22.2005C24.7065 21.8187 24.6515 21.4389 24.5436 21.0717C24.4993 20.9206 24.5638 20.7589 24.7005 20.6787L25.1433 20.419C25.3347 20.3069 25.3933 20.0641 25.283 19.8798L24.9033 19.2442C24.7933 19.0598 24.5503 18.9935 24.359 19.1058L23.916 19.3657C23.7793 19.4458 23.6052 19.4241 23.4929 19.3129C23.2198 19.0425 22.9102 18.812 22.5727 18.6278C22.4337 18.552 22.3641 18.3926 22.4035 18.2403L22.5311 17.7472C22.5855 17.5369 22.4571 17.3219 22.2448 17.268L21.5228 17.0846C21.3106 17.0307 21.0936 17.158 21.0392 17.3683L20.9116 17.8613C20.8722 18.0136 20.7338 18.1202 20.5752 18.1204C20.1899 18.121 19.8065 18.1755 19.4358 18.2824C19.2833 18.3263 19.1201 18.2624 19.0392 18.127L18.7771 17.6882C18.6641 17.4989 18.4191 17.4404 18.2329 17.5498L17.5913 17.926C17.4056 18.0348 17.3381 18.2754 17.4517 18.4653L17.7139 18.9042C17.7948 19.0397 17.7729 19.2122 17.6606 19.3235C17.3878 19.594 17.1551 19.9008 16.9692 20.2352C16.8927 20.3729 16.7318 20.4418 16.5781 20.4028L16.0805 20.2764C15.8682 20.2225 15.6512 20.3497 15.5968 20.56L15.4117 21.2754C15.3573 21.4857 15.4858 21.7006 15.698 21.7545L16.1956 21.8809C16.3493 21.92 16.4569 22.0571 16.4572 22.2143C16.4578 22.596 16.5128 22.9758 16.6206 23.3431C16.665 23.4942 16.6005 23.6559 16.4638 23.736L16.0209 23.9957C15.8295 24.1078 15.7709 24.3506 15.8813 24.535L16.261 25.1706C16.371 25.355 16.614 25.4213 16.8052 25.3089L17.2482 25.0491C17.3489 24.9901 17.5332 24.965 17.6714 25.1019Z" fill="#2574B7"/>
<path d="M19.4686 27.9979L18.7467 27.8146C18.1627 27.6663 17.8094 27.0749 17.9591 26.4964L18.0217 26.2544C17.7938 26.1127 17.5783 25.9523 17.3773 25.7746L17.1598 25.9021C16.633 26.2115 15.9646 26.0288 15.662 25.5216L15.2825 24.8864C14.9792 24.3793 15.1395 23.7111 15.6666 23.4024L15.8839 23.275C15.8234 23.0149 15.7851 22.7506 15.7695 22.4844L15.5252 22.4224C14.9413 22.2741 14.588 21.6827 14.7377 21.1042L14.9228 20.3888C15.0725 19.8103 15.6693 19.4602 16.2533 19.6086L16.4975 19.6706C16.6405 19.4447 16.8024 19.2312 16.9817 19.0321L16.853 18.8166C16.541 18.295 16.7247 17.6328 17.2371 17.3326L17.8782 16.9566C18.3909 16.6555 19.065 16.8159 19.376 17.3372L19.5046 17.5525C19.7671 17.4925 20.0339 17.4546 20.3025 17.439L20.3651 17.1971C20.5148 16.6185 21.1116 16.2685 21.6956 16.4168L22.4176 16.6002C23.0015 16.7485 23.3548 17.3398 23.2051 17.9184L23.1425 18.1604C23.3704 18.302 23.5859 18.4625 23.7869 18.6401L24.0044 18.5126C24.5312 18.2032 25.1996 18.3859 25.5022 18.8932L25.8817 19.5283C26.185 20.0355 26.0247 20.7036 25.4976 21.0123L25.2803 21.1398C25.3408 21.3998 25.3791 21.6642 25.3948 21.9303L25.639 21.9923C26.2229 22.1407 26.5762 22.732 26.4266 23.3106L26.2415 24.0259C26.0918 24.6045 25.4949 24.9545 24.911 24.8062L24.6668 24.7441C24.5238 24.97 24.3619 25.1835 24.1825 25.3826L24.3113 25.5981C24.6233 26.1197 24.4396 26.782 23.9272 27.0821L23.286 27.4581C22.7733 27.7593 22.0993 27.5989 21.7882 27.0775L21.6596 26.8623C21.3972 26.9222 21.1303 26.9602 20.8617 26.9757L20.7991 27.2177C20.6494 27.7962 20.0526 28.1462 19.4686 27.9979ZM17.6714 25.1019C17.9445 25.3723 18.2541 25.6028 18.5916 25.787C18.7306 25.8628 18.8001 26.0222 18.7607 26.1745L18.6332 26.6676C18.5788 26.8779 18.7072 27.0928 18.9195 27.1467L19.6415 27.3301C19.8537 27.384 20.0707 27.2568 20.1251 27.0465L20.2527 26.5534C20.2921 26.4011 20.4305 26.2946 20.5891 26.2943C20.9744 26.2937 21.3578 26.2392 21.7285 26.1323C21.881 26.0884 22.0441 26.1523 22.1251 26.2877L22.3872 26.7265C22.5002 26.9159 22.7451 26.9744 22.9314 26.8649L23.573 26.4887C23.7587 26.3799 23.8262 26.1393 23.7126 25.9495L23.4504 25.5105C23.3695 25.3751 23.3914 25.2026 23.5036 25.0913C23.7765 24.8207 24.0091 24.5139 24.1951 24.1796C24.2716 24.0419 24.4325 23.9729 24.5862 24.012L25.0838 24.1384C25.296 24.1923 25.513 24.065 25.5674 23.8547L25.7525 23.1394C25.8069 22.9291 25.6785 22.7141 25.4662 22.6602L24.9686 22.5338C24.8149 22.4948 24.7074 22.3577 24.7071 22.2005C24.7065 21.8187 24.6515 21.4389 24.5436 21.0717C24.4993 20.9206 24.5638 20.7589 24.7005 20.6787L25.1433 20.419C25.3347 20.3069 25.3933 20.0641 25.283 19.8798L24.9033 19.2442C24.7933 19.0598 24.5503 18.9935 24.359 19.1058L23.916 19.3657C23.7793 19.4458 23.6052 19.4241 23.4929 19.3129C23.2198 19.0425 22.9102 18.812 22.5727 18.6278C22.4337 18.552 22.3641 18.3926 22.4035 18.2403L22.5311 17.7472C22.5855 17.5369 22.4571 17.3219 22.2448 17.268L21.5228 17.0846C21.3106 17.0307 21.0936 17.158 21.0392 17.3683L20.9116 17.8613C20.8722 18.0136 20.7338 18.1202 20.5752 18.1204C20.1899 18.121 19.8065 18.1755 19.4358 18.2824C19.2833 18.3263 19.1201 18.2624 19.0392 18.127L18.7771 17.6882C18.6641 17.4989 18.4191 17.4404 18.2329 17.5498L17.5913 17.926C17.4056 18.0348 17.3381 18.2754 17.4517 18.4653L17.7139 18.9042C17.7948 19.0397 17.7729 19.2122 17.6606 19.3235C17.3878 19.594 17.1551 19.9008 16.9692 20.2352C16.8927 20.3729 16.7318 20.4418 16.5781 20.4028L16.0805 20.2764C15.8682 20.2225 15.6512 20.3497 15.5968 20.56L15.4117 21.2754C15.3573 21.4857 15.4858 21.7006 15.698 21.7545L16.1956 21.8809C16.3493 21.92 16.4569 22.0571 16.4572 22.2143C16.4578 22.596 16.5128 22.9758 16.6206 23.3431C16.665 23.4942 16.6005 23.6559 16.4638 23.736L16.0209 23.9957C15.8295 24.1078 15.7709 24.3506 15.8813 24.535L16.261 25.1706C16.371 25.355 16.614 25.4213 16.8052 25.3089L17.2482 25.0491C17.3489 24.9901 17.5332 24.965 17.6714 25.1019Z" stroke="#2574B7" stroke-width="0.16" mask="url(#path-3-outside-1)"/>
<path fill-rule="evenodd" clip-rule="evenodd" d="M17.6234 10.6H9.22344V9.79999H17.6234V10.6Z" fill="#394149"/>
<path fill-rule="evenodd" clip-rule="evenodd" d="M17.6234 13.4H9.22344V12.6H17.6234V13.4Z" fill="#394149"/>
<path fill-rule="evenodd" clip-rule="evenodd" d="M17.2234 16.2L8.82344 16.2L8.82344 15.4L17.2234 15.4L17.2234 16.2Z" fill="#394149"/>
<path fill-rule="evenodd" clip-rule="evenodd" d="M15.6234 19H8.02344V18.2H15.6234V19Z" fill="#394149"/>
<path fill-rule="evenodd" clip-rule="evenodd" d="M14.0234 21.8H7.22344V21H14.0234V21.8Z" fill="#394149"/>
</svg>
