<svg width="16" height="16" viewBox="0 0 16 16" fill="none" xmlns="http://www.w3.org/2000/svg">
<path d="M14.272 4.29213C13.8552 4.50054 13.3967 4.5839 12.9382 4.66727C13.1466 4.62559 13.4801 4.25045 13.6051 4.08372C13.8135 3.83363 13.9803 3.58354 14.0636 3.29177C14.0636 3.25009 14.0636 3.25009 14.0636 3.20841C14.0219 3.20841 14.0219 3.20841 13.9803 3.20841C13.4801 3.50018 12.9382 3.66691 12.3964 3.83363C12.3547 3.83363 12.313 3.83363 12.2713 3.79195C12.2296 3.75027 12.188 3.70859 12.1463 3.66691C11.8962 3.4585 11.6461 3.29177 11.396 3.20841C11.0209 3.04168 10.604 3 10.2289 3C9.77042 3.04168 9.39528 3.12504 9.06183 3.33345C8.72837 3.50018 8.39492 3.75027 8.14483 4.08372C7.89474 4.41718 7.68633 4.75063 7.60297 5.16745C7.51961 5.54258 7.51961 5.91772 7.56129 6.29285C7.56129 6.37622 7.56129 6.37622 7.51961 6.37622C5.35216 6.00108 3.51817 5.25081 2.05931 3.54186C1.97594 3.50018 1.93426 3.50018 1.89258 3.58354C1.26736 4.54222 1.55913 6.08444 2.35108 6.8764C2.47612 6.95976 2.55949 7.0848 2.68453 7.16817C2.64285 7.16817 2.10099 7.12649 1.64249 6.8764C1.55913 6.83471 1.55913 6.8764 1.55913 6.91808C1.55913 7.00144 1.55913 7.12649 1.55913 7.25153C1.68417 8.21021 2.35108 9.12721 3.26808 9.50234C3.39312 9.54402 3.51817 9.5857 3.60153 9.62739C3.39312 9.66907 3.18471 9.71075 2.55949 9.66907C2.47612 9.66907 2.47612 9.71075 2.47612 9.75243C2.93462 11.0029 3.93498 11.378 4.64357 11.5864C4.72693 11.5864 4.85198 11.5864 4.93534 11.6281C4.68525 12.0032 3.85162 12.295 3.4348 12.4201C2.72621 12.6701 1.93426 12.7952 1.18399 12.7118C1.05895 12.7118 1.01727 12.7118 1.01727 12.7118C0.975583 12.7118 1.01727 12.7535 1.05895 12.7952C1.22567 12.8786 1.35072 13.0036 1.51745 13.087C2.01763 13.3371 2.51781 13.5455 3.01799 13.6705C5.72729 14.4208 8.77006 13.8789 10.8125 11.8365C12.3964 10.2526 12.9799 8.04348 12.9799 5.87604C12.9799 5.79267 13.0633 5.75099 13.1466 5.70931C13.5634 5.41754 13.8969 5.0424 14.1887 4.62559C14.272 4.54222 14.272 4.45886 14.272 4.41718C14.3137 4.25045 14.3137 4.29213 14.272 4.29213Z" fill="#B0B0B0"/>
<path fill-rule="evenodd" clip-rule="evenodd" d="M5.43555 13.8789C5.43555 13.8372 5.68564 13.8789 5.43555 13.8789C5.43555 13.8789 5.47723 13.8789 5.43555 13.8789Z" fill="#B0B0B0"/>
</svg>
