<svg width="16" height="16" viewBox="0 0 16 16" fill="none" xmlns="http://www.w3.org/2000/svg">
<path fill-rule="evenodd" clip-rule="evenodd" d="M5.43462 8.39725V15.4807C5.43462 15.5703 5.52428 15.66 5.61394 15.66H8.25902C8.34868 15.66 8.43835 15.5703 8.43835 15.4807V8.26275H10.3661C10.4558 8.26275 10.5454 8.17309 10.5454 8.08342L10.7248 5.9315C10.7248 5.84183 10.6351 5.75217 10.5454 5.75217H8.43835V4.18306C8.43835 3.8244 8.75217 3.51058 9.11083 3.51058H10.5903C10.6799 3.51058 10.7696 3.42092 10.7696 3.33125V1.17933C10.7696 1.08966 10.6799 1 10.5903 1H8.12453C6.64508 1 5.47945 2.16563 5.47945 3.64508V5.75217H4.17933C4.08966 5.75217 4 5.84183 4 5.9315V8.08342C4 8.17309 4.08966 8.26275 4.17933 8.26275H5.47945V8.39725H5.43462Z" fill="#B0B0B0"/>
</svg>
