<svg width="16" height="16" viewBox="0 0 16 16" fill="none" xmlns="http://www.w3.org/2000/svg">
<path fill-rule="evenodd" clip-rule="evenodd" d="M4.14096 2.57048C4.14096 3.43783 3.43783 4.14095 2.57048 4.14095C1.70313 4.14095 1 3.43783 1 2.57048C1 1.70313 1.70313 1 2.57048 1C3.43783 1 4.14096 1.70313 4.14096 2.57048ZM14.6587 13.897V9.04277C14.6587 6.33013 13.231 5.04519 11.1846 5.09278C9.61412 5.09278 8.90027 5.94941 8.51955 6.56808V5.52109C8.51955 5.37832 8.42437 5.28314 8.2816 5.28314H5.80691C5.66414 5.28314 5.56896 5.37832 5.56896 5.52109C5.60467 6.55687 5.58678 10.0855 5.57563 12.2848C5.57192 13.0159 5.56896 13.6001 5.56896 13.897C5.56896 14.0397 5.66414 14.1349 5.80691 14.1349H8.32919C8.47196 14.1349 8.56714 14.0397 8.56714 13.897V9.18554C8.56714 8.9 8.56714 8.66205 8.66232 8.47169C8.90027 7.90061 9.37617 7.37711 10.1852 7.37711C11.2322 7.37711 11.6605 8.18614 11.6605 9.3759V13.897C11.6605 14.0397 11.7557 14.1349 11.8984 14.1349H14.4207C14.5635 14.1349 14.6587 14.0397 14.6587 13.897ZM3.9033 14.0873H1.38102C1.28584 14.0873 1.19066 13.9921 1.14307 13.8494V5.4735C1.14307 5.33073 1.23825 5.23555 1.38102 5.23555H3.9033C4.04607 5.23555 4.14125 5.33073 4.14125 5.4735V13.8494C4.14125 13.9921 4.04607 14.0873 3.9033 14.0873Z" fill="#B0B0B0"/>
</svg>
