<svg width="234" height="29" viewBox="0 0 234 29" fill="none" xmlns="http://www.w3.org/2000/svg">
<path d="M36.6181 14.8864C36.6181 16.6068 36.1736 17.8923 35.3813 18.703C34.589 19.5138 33.5069 19.9687 32.1735 19.9687C31.0141 19.9687 30.0478 19.6918 29.4101 18.9601C28.7918 18.3273 28.4246 17.3188 28.4246 16.0531V6.69928H25.7579V16.2509C25.7579 18.1691 26.299 19.7116 27.3618 20.8981C28.4246 22.0847 29.8546 22.6186 31.6324 22.6186C33.8547 22.6186 35.4586 21.7089 36.5214 19.9885V22.1638H39.1882V6.69928H36.5214L36.6181 14.8864Z" fill="black"/>
<path d="M47.0145 6.69928H44.3478V22.1638H47.0145V6.69928Z" fill="black"/>
<path d="M45.6797 0.252075C45.2353 0.252075 44.7908 0.430055 44.443 0.805791C44.0952 1.18153 43.9019 1.61659 43.9019 2.07143C43.9019 2.52627 44.0758 2.9811 44.443 3.33706C44.8102 3.69302 45.158 3.89078 45.6797 3.89078C46.2208 3.89078 46.5687 3.7128 46.9165 3.33706C47.2643 2.9811 47.4576 2.52627 47.4576 2.07143C47.4576 1.61659 47.2837 1.16175 46.9165 0.805791C46.5687 0.430055 46.1242 0.252075 45.6797 0.252075Z" fill="black"/>
<path d="M62.1084 18.8801C61.3161 19.335 60.3306 19.6118 59.3451 19.6118C57.8378 19.6118 56.5044 19.157 55.5189 18.0693C54.5333 16.9817 54.0116 15.6963 54.0116 14.1538C54.0116 12.6113 54.5527 11.3259 55.5189 10.2382C56.5817 9.22964 57.8378 8.6957 59.3451 8.6957C60.3306 8.6957 61.2195 8.87368 62.0118 9.4274C62.8041 9.98111 63.4418 10.6139 63.7896 11.4247L66.0119 10.1591C65.3935 8.97256 64.5046 7.98378 63.3452 7.25209C62.1857 6.52039 60.8523 6.16443 59.3451 6.16443C57.0262 6.16443 55.171 6.97523 53.6637 8.5375C52.2338 10.08 51.4415 12.0773 51.4415 14.3515C51.4415 16.7246 52.1565 18.623 53.6637 20.1655C55.171 21.708 57.0455 22.5386 59.3451 22.5386C60.775 22.5386 62.1084 22.1826 63.4418 21.1741C64.6012 20.4424 65.5674 19.4536 66.2051 18.2671L63.9829 16.9026C63.5384 17.6936 62.92 18.4253 62.1084 18.8801Z" fill="black"/>
<path d="M75.1711 14.1542L82.379 6.69885H78.9973L72.5044 13.5214V0.509094H69.8376V22.1633H72.5044V14.7871L79.4418 22.1633H82.7269L75.1711 14.1542Z" fill="black"/>
<path d="M98.7262 10.9701C100.233 9.88247 101.045 8.33998 100.948 6.42175C100.948 4.78037 100.407 3.33676 99.2672 2.22932C98.1078 1.04279 96.7744 0.50885 95.0932 0.50885H86.6486V22.1433H95.8082C97.4894 22.1433 99.016 21.5896 100.156 20.4228C101.316 19.2363 101.934 17.7927 101.934 16.0524C101.934 14.8659 101.586 13.8771 101.045 12.9675C100.504 12.1567 99.6924 11.425 98.7262 10.9701ZM89.3926 3.23788H95.0739C95.9628 3.23788 96.6778 3.51474 97.2962 4.14756C97.9146 4.78037 98.1851 5.61095 98.1851 6.52062C98.1851 7.4303 97.9146 8.2411 97.2962 8.89369C96.6778 9.52651 95.9628 9.90225 95.0739 9.90225H89.3926V3.23788ZM98.1851 18.4255C97.5667 19.0583 96.7551 19.4341 95.7889 19.4341H89.4892V12.4335H95.7889C96.7744 12.4335 97.5667 12.7895 98.1851 13.4421C98.8035 14.0749 99.1706 14.9055 99.1706 15.8942C99.1706 16.883 98.8035 17.7927 98.1851 18.4255Z" fill="#1E6599"/>
<path d="M114.09 0.509399H106.36V22.1439H109.201V14.4314H114.09C116.041 14.4314 117.645 13.6997 118.979 12.4341C120.312 11.1684 120.93 9.52706 120.93 7.52973C120.93 5.53239 120.312 3.89102 118.979 2.52651C117.645 1.16199 116.061 0.509399 114.09 0.509399ZM117.027 10.5158C116.235 11.3266 115.249 11.7024 114.09 11.7024L109.201 11.8013V3.23843H114.09C115.249 3.23843 116.215 3.59439 117.027 4.42496C117.819 5.23576 118.186 6.24432 118.186 7.50995C118.186 8.69649 117.839 9.70504 117.027 10.5158Z" fill="#1E6599"/>
<path d="M142.091 0.509399L135.424 11.9792L128.68 0.509399H125.472V22.1637H128.313V5.33464L135.25 17.0616H135.598L142.536 5.25554V22.1637H145.28V0.509399H142.091Z" fill="#1E6599"/>
<path d="M12.7168 14.7865V22.5979H21.432L12.7168 14.7865Z" fill="#FFD800"/>
<path d="M11 2.70486C15.5671 2.70486 19.318 6.47239 19.318 11.0598C19.318 13.0314 18.5989 14.8273 17.53 16.1743L17.4329 16.2719L19.4929 18.0678L19.5901 17.9702C21.106 16.0766 22 13.6561 22 11.0598C21.9806 4.94976 17.0636 0.0109863 11 0.0109863C4.9364 0.0109863 0 4.85216 0 10.9622C0 17.0722 4.91696 22.011 11 22.011V19.3952C6.43286 19.3952 2.68198 15.6277 2.68198 11.0403C2.68198 6.45287 6.43286 2.70486 11 2.70486Z" fill="#1E6599"/>
<circle cx="158.5" cy="12.511" r="2.5" fill="black"/>
<path d="M188.493 22.011H186.579V11.55H172.62V22.011H170.739V0H172.62V9.834H186.579V0H188.493V22.011Z" fill="black"/>
<path d="M200.608 22.407C198.276 22.407 196.362 21.626 194.866 20.064C193.37 18.502 192.622 16.489 192.622 14.025C192.622 11.693 193.348 9.724 194.8 8.118C196.274 6.49 198.111 5.676 200.311 5.676C202.643 5.676 204.48 6.49 205.822 8.118C207.164 9.724 207.835 11.726 207.835 14.124V14.586H194.503C194.591 16.39 195.196 17.897 196.318 19.107C197.44 20.317 198.914 20.922 200.74 20.922C202.852 20.922 204.59 20.185 205.954 18.711L206.845 19.833C205.195 21.549 203.116 22.407 200.608 22.407ZM206.086 13.233C206.064 11.693 205.547 10.296 204.535 9.042C203.545 7.788 202.126 7.161 200.278 7.161C198.54 7.161 197.154 7.788 196.12 9.042C195.108 10.274 194.569 11.671 194.503 13.233H206.086Z" fill="black"/>
<path d="M213.656 22.011H211.94V0H213.656V22.011Z" fill="black"/>
<path d="M225.927 22.407C223.639 22.407 221.791 21.417 220.383 19.437V28.083H218.667V6.072H220.383V8.58C220.977 7.722 221.758 7.029 222.726 6.501C223.716 5.951 224.783 5.676 225.927 5.676C228.061 5.676 229.777 6.435 231.075 7.953C232.395 9.449 233.055 11.473 233.055 14.025C233.055 16.555 232.395 18.59 231.075 20.13C229.777 21.648 228.061 22.407 225.927 22.407ZM225.63 20.856C227.368 20.856 228.732 20.218 229.722 18.942C230.712 17.666 231.207 16.027 231.207 14.025C231.207 12.045 230.712 10.417 229.722 9.141C228.732 7.865 227.368 7.227 225.63 7.227C224.552 7.227 223.529 7.502 222.561 8.052C221.593 8.602 220.867 9.273 220.383 10.065V17.952C220.867 18.744 221.593 19.426 222.561 19.998C223.551 20.57 224.574 20.856 225.63 20.856Z" fill="black"/>
</svg>
