<svg width="201" height="34" viewBox="0 0 201 34" fill="none" xmlns="http://www.w3.org/2000/svg">
<path d="M28.4828 16.7438C28.4813 13.5724 27.3134 10.5128 25.2022 8.15016C23.0911 5.78757 20.185 4.28781 17.0397 3.93774L19.3609 6.95875L17.5718 9.05986C19.2518 9.51419 20.7352 10.5115 21.7918 11.897C22.8484 13.2826 23.4191 14.9788 23.4154 16.7226L21.5419 16.7106L25.928 20.375L30.3849 16.7604L28.4828 16.7438Z" fill="#DE3933"/>
<path d="M15.1523 22.6561C13.9354 24.1243 12.7171 25.594 11.4972 27.0652L15.104 31.5121L15.1146 29.5364C18.1622 29.5912 21.1344 28.5857 23.5254 26.6912C25.9163 24.7966 27.578 22.1301 28.2277 19.1457L25.9518 20.9583L23.1453 18.6925C22.6701 20.4413 21.6222 21.9793 20.1698 23.0595C18.7175 24.1396 16.9451 24.6992 15.1372 24.6484V24.7179L15.1493 22.6697" fill="#FFBD2B"/>
<path d="M13.1327 24.387C11.3706 24.0017 9.79446 23.0204 8.66913 21.6079C7.5438 20.1955 6.93781 18.4379 6.95296 16.6305V16.6305L8.83854 16.6411L7.09767 15.1925L4.43735 12.9781L2.00918 14.9569L0 16.5928L1.8871 16.6033C1.89249 19.6563 2.97829 22.6083 4.95132 24.9344C6.92436 27.2604 9.6567 28.8097 12.6624 29.3067L10.8266 27.0591L13.1312 24.3855" fill="#2574B7"/>
<path d="M15.2608 2.48779V3.80645C12.2265 3.73949 9.26288 4.72943 6.87545 6.60746C4.48803 8.48549 2.82461 11.1353 2.16879 14.1051L4.40405 12.2169L7.20149 14.5945C7.74293 12.8852 8.81315 11.393 10.2572 10.3339C11.7012 9.27483 13.4442 8.70379 15.2336 8.70351V8.70351L15.2216 11.0448L18.7651 6.89695L15.2608 2.48779Z" fill="#5FA24B"/>
<path d="M47.2197 27H37.1737V9.24038H47.2197V11.6942H40.077V16.5289H46.7702V18.9584H40.077V24.5341H47.2197V27ZM51.0704 27V9.24038H53.9737V24.5098H61.493V27H51.0704ZM72.2314 27L67.0808 12.1679H66.9836C67.1213 14.3707 67.1902 16.4357 67.1902 18.3631V27H64.5541V9.24038H68.6478L73.5797 23.3679H73.6526L78.7303 9.24038H82.8361V27H80.0422V18.2174C80.0422 17.3347 80.0624 16.1847 80.1029 14.7675C80.1515 13.3503 80.192 12.4919 80.2244 12.1922H80.1272L74.7945 27H72.2314ZM98.5307 27L96.7571 22.0681H89.9667L88.2296 27H85.1684L91.8131 9.16749H94.9715L101.616 27H98.5307ZM95.9918 19.5657L94.3276 14.731C94.2062 14.4071 94.0361 13.8969 93.8174 13.2005C93.6069 12.504 93.4611 11.9938 93.3801 11.6699C93.1615 12.666 92.8416 13.7552 92.4205 14.9375L90.817 19.5657H95.9918ZM113.836 13.4191C113.836 14.5529 113.517 15.4801 112.877 16.2009C112.245 16.9216 111.346 17.4035 110.18 17.6464V17.7436C111.605 17.9218 112.662 18.3753 113.351 19.1041C114.039 19.833 114.383 20.7886 114.383 21.9709C114.383 23.6635 113.796 24.9673 112.622 25.8824C111.447 26.7894 109.779 27.2429 107.617 27.2429C106.678 27.2429 105.815 27.1701 105.03 27.0243C104.252 26.8866 103.495 26.6396 102.758 26.2833V24.364C103.527 24.7446 104.345 25.0362 105.212 25.2386C106.086 25.433 106.912 25.5302 107.69 25.5302C110.759 25.5302 112.294 24.3276 112.294 21.9224C112.294 19.7682 110.601 18.6911 107.216 18.6911H105.467V16.954H107.24C108.625 16.954 109.723 16.6503 110.532 16.043C111.342 15.4275 111.747 14.5772 111.747 13.492C111.747 12.6255 111.447 11.9452 110.848 11.4512C110.257 10.9572 109.451 10.7102 108.431 10.7102C107.653 10.7102 106.921 10.8155 106.232 11.0261C105.544 11.2366 104.758 11.6253 103.876 12.1922L102.855 10.8317C103.584 10.2567 104.422 9.80726 105.37 9.48333C106.325 9.1513 107.329 8.98528 108.382 8.98528C110.107 8.98528 111.447 9.3821 112.403 10.1757C113.359 10.9613 113.836 12.0424 113.836 13.4191ZM117.274 19.4078C117.274 15.9174 117.95 13.3098 119.303 11.5848C120.663 9.8518 122.672 8.98528 125.328 8.98528C126.243 8.98528 126.964 9.06221 127.49 9.21608V10.9532C126.867 10.7507 126.154 10.6495 125.352 10.6495C123.449 10.6495 121.996 11.2447 120.991 12.4352C119.987 13.6175 119.436 15.4801 119.339 18.023H119.485C120.376 16.6301 121.785 15.9336 123.712 15.9336C125.308 15.9336 126.563 16.4155 127.478 17.3792C128.401 18.3429 128.863 19.6508 128.863 21.3028C128.863 23.1492 128.357 24.6029 127.344 25.6638C126.34 26.7166 124.98 27.2429 123.263 27.2429C121.425 27.2429 119.967 26.5546 118.89 25.1779C117.813 23.7931 117.274 21.8697 117.274 19.4078ZM123.239 25.5302C124.389 25.5302 125.279 25.1698 125.911 24.449C126.551 23.7202 126.871 22.6714 126.871 21.3028C126.871 20.1286 126.575 19.2054 125.984 18.5332C125.393 17.861 124.51 17.525 123.336 17.525C122.607 17.525 121.939 17.6748 121.331 17.9744C120.724 18.2741 120.238 18.6871 119.874 19.2135C119.517 19.7399 119.339 20.2865 119.339 20.8534C119.339 21.6875 119.501 22.4649 119.825 23.1857C120.149 23.9064 120.607 24.4774 121.198 24.8985C121.797 25.3196 122.477 25.5302 123.239 25.5302ZM136.856 16.1523C138.727 16.1523 140.197 16.618 141.266 17.5493C142.343 18.4725 142.881 19.7399 142.881 21.3514C142.881 23.1897 142.294 24.6312 141.12 25.6759C139.954 26.7206 138.342 27.2429 136.285 27.2429C134.285 27.2429 132.758 26.9231 131.705 26.2833V24.3397C132.272 24.7041 132.977 24.9916 133.819 25.2022C134.661 25.4046 135.491 25.5059 136.309 25.5059C137.735 25.5059 138.84 25.1698 139.626 24.4976C140.419 23.8255 140.816 22.8537 140.816 21.5822C140.816 19.1041 139.298 17.8651 136.261 17.8651C135.491 17.8651 134.463 17.9825 133.175 18.2174L132.131 17.5493L132.799 9.24038H141.63V11.0989H134.524L134.074 16.4317C135.006 16.2454 135.933 16.1523 136.856 16.1523Z" fill="black"/>
<path d="M163.454 27H162.197V18.2231H151.772V27H150.527V9.15332H151.772V17.0757H162.197V9.15332H163.454V27ZM173.574 27.2441C171.645 27.2441 170.139 26.6501 169.057 25.4619C167.983 24.2738 167.446 22.6095 167.446 20.4692C167.446 18.3534 167.967 16.6606 169.008 15.3911C170.05 14.1134 171.454 13.4746 173.22 13.4746C174.782 13.4746 176.015 14.0199 176.918 15.1104C177.822 16.2008 178.273 17.682 178.273 19.5537V20.5303H168.715C168.732 22.3532 169.155 23.7448 169.985 24.7051C170.823 25.6654 172.019 26.1455 173.574 26.1455C174.331 26.1455 174.994 26.0926 175.563 25.9868C176.141 25.881 176.87 25.6532 177.749 25.3032V26.4019C177 26.7274 176.308 26.9471 175.673 27.061C175.039 27.1831 174.339 27.2441 173.574 27.2441ZM173.22 14.5488C171.942 14.5488 170.917 14.972 170.144 15.8184C169.37 16.6566 168.919 17.8691 168.789 19.4561H176.992C176.992 17.918 176.658 16.7176 175.991 15.855C175.323 14.9842 174.4 14.5488 173.22 14.5488ZM183.144 27H181.936V8.00586H183.144V27ZM193.276 27.2441C191.233 27.2441 189.744 26.4792 188.808 24.9492H188.723L188.759 25.9746C188.792 26.5768 188.808 27.236 188.808 27.9521V33.0059H187.6V13.731H188.625L188.857 15.623H188.93C189.842 14.1908 191.298 13.4746 193.3 13.4746C195.091 13.4746 196.454 14.0646 197.39 15.2446C198.334 16.4165 198.806 18.1255 198.806 20.3716C198.806 22.5526 198.309 24.2453 197.316 25.4497C196.332 26.646 194.985 27.2441 193.276 27.2441ZM193.251 26.1699C194.611 26.1699 195.66 25.6654 196.401 24.6562C197.15 23.6471 197.524 22.2352 197.524 20.4204C197.524 16.5223 196.116 14.5732 193.3 14.5732C191.754 14.5732 190.619 15.0005 189.895 15.855C189.17 16.7013 188.808 18.0848 188.808 20.0054V20.396C188.808 22.4712 189.154 23.9523 189.846 24.8394C190.546 25.7264 191.681 26.1699 193.251 26.1699Z" fill="black"/>
</svg>
