<svg xmlns="http://www.w3.org/2000/svg" id="_Слой_1" data-name="Слой 1" viewBox="0 0 317.27 92.82"><defs><style>.cls-2{fill:#4d5759}</style></defs><path d="M23.2 0C10.39 0 0 10.39 0 23.2v46.41c0 12.82 10.39 23.21 23.2 23.21h46.41c12.82 0 23.2-10.39 23.2-23.21V0z" style="fill:#b0ed52"/><path d="M25.37 37.06c-.76-3.32 2.55-6.26 6.84-6.26 3.86 0 7.73.86 9.2 6.24h4.95v8.21c-6.17-5.07-19.54-1.89-20.98-8.2m51.33-2.27H65.57l-10.6 11.61V23.21h-8.6v5.62c-.28-.36-.58-.72-.91-1.07-3.13-3.31-7.63-4.99-13.4-4.99-6.66 0-10.45 2.98-12.46 5.48-2.49 3.11-3.6 7.34-2.83 10.8 1.99 8.94 10.29 10.37 16.38 11.16 4.81.63 9.42 1.5 9.29 5.79-.13 4.45-5.14 5.54-8.44 5.54-8.58 0-8.87-6.34-8.87-6.34h-9.22c.14 2.38.85 6.2 3.78 9.48 3.21 3.59 8.02 5.41 14.3 5.41 4.82 0 9.21-1.57 12.35-4.36v3.83h8.6V58.61l3.04-3.33 8.69 14.28h10.01L64.04 48.65l12.65-13.86ZM114.71 63.76c.58.19 1.25.29 2.02.29q1.44 0 2.31-.87c.58-.58.96-1.35 1.16-2.21l-12.23-25.9h8.14l7.85 18.58 6.88-18.58h7.75l-11.02 25.52c-1.45 3.37-2.94 5.87-4.57 7.46-1.64 1.64-3.42 2.46-5.39 2.46-.67 0-1.2 0-1.64-.1-.48-.05-.87-.14-1.2-.24l-.92-.29c-.24-.1-.48-.19-.72-.24v-6.55c.43.29.96.53 1.59.67M151.84 59.91c-.48.14-1.01.24-1.59.39-.58.1-1.2.19-1.83.24-.63.1-1.25.1-1.83.1-1.49 0-2.74-.14-3.9-.39-1.11-.29-2.07-.67-2.84-1.25s-1.35-1.35-1.73-2.31c-.39-.91-.58-2.07-.58-3.42v-9.24h6.64v7.94c0 .72.1 1.35.29 1.78.14.48.43.87.82 1.16s.82.48 1.4.58 1.25.14 2.02.14c1.16 0 2.02-.1 2.7-.29q1.005-.36 1.59-.72V44.03h6.64v25.61H153V59.53c-.29.1-.67.24-1.16.38M177.36 57.69c-.43.19-.96.39-1.64.48l-1.78.34c-.77.14-1.45.29-2.02.48-.58.19-1.06.43-1.45.72-.39.34-.67.72-.87 1.16-.19.43-.29.96-.29 1.64 0 .53.1 1.01.24 1.4.19.43.43.72.77 1.01.29.24.63.48 1.01.58.43.14.87.19 1.35.19.24 0 .58-.05.96-.1.39-.05.77-.14 1.25-.29.43-.19.87-.39 1.3-.67.43-.24.82-.63 1.16-1.06.39-.43.67-.96.87-1.64.19-.63.34-1.35.34-2.21v-2.6c-.39.24-.82.43-1.2.58m7.99 8.76c.05.48.19.92.34 1.16.15.34.29.53.48.67s.34.24.58.29v1.06h-7.37l-.39-1.2c-.19-.48-.24-1.06-.24-1.78l-1.49 1.49c-.53.43-1.06.82-1.69 1.15s-1.3.63-2.12.82-1.78.29-2.89.29-2.22-.15-3.18-.48c-.96-.34-1.78-.87-2.5-1.49a7.2 7.2 0 0 1-1.64-2.5c-.39-.96-.58-2.12-.58-3.42 0-1.06.15-2.02.48-2.94.34-.92.82-1.68 1.4-2.36.63-.67 1.35-1.25 2.21-1.68.87-.48 1.83-.77 2.94-.92l6.5-.96c.24-.05.48-.05.77-.14.29-.05.53-.14.77-.34.24-.14.43-.34.58-.58.14-.29.24-.63.24-1.06s-.1-.82-.19-1.15c-.14-.39-.39-.67-.67-.92-.34-.29-.72-.48-1.25-.63-.53-.14-1.2-.19-1.97-.19-.91 0-1.59.1-2.12.24-.58.19-1.01.48-1.3.77-.34.34-.58.72-.72 1.11l-.29 1.4h-6.64c0-.29.05-.72.15-1.3.1-.53.29-1.16.58-1.83.24-.63.67-1.3 1.16-1.97.48-.67 1.11-1.3 1.97-1.88.77-.53 1.78-1.01 2.94-1.35s2.5-.53 4.14-.58c2.26 0 4.14.24 5.58.68 1.4.48 2.5 1.11 3.32 1.83.77.77 1.3 1.59 1.59 2.5.24.91.39 1.83.39 2.74v13.58c0 .77.05 1.4.14 1.88M203.93 51.29c-.19-.53-.48-.96-.82-1.3-.39-.39-.82-.63-1.3-.82-.53-.14-1.16-.24-1.88-.24-1.11 0-1.97.24-2.65.77-.67.53-1.2 1.16-1.54 1.93-.39.82-.58 1.68-.72 2.6-.1.91-.19 1.78-.19 2.6s.05 1.73.14 2.65c.1.96.29 1.78.67 2.55.34.77.82 1.45 1.54 1.93.67.53 1.59.77 2.74.77.77 0 1.44-.14 2.02-.48a5.2 5.2 0 0 0 1.4-1.11c.38-.48.67-.96.87-1.49.14-.48.24-.96.24-1.4h6.93c0 .43-.05.96-.19 1.64-.19.72-.43 1.4-.77 2.17-.34.72-.82 1.49-1.35 2.26-.62.77-1.3 1.44-2.17 2.02-.87.63-1.83 1.11-2.98 1.49-1.16.39-2.5.58-4 .58-1.93 0-3.66-.29-5.15-.87-1.49-.63-2.74-1.49-3.76-2.65-1.01-1.16-1.78-2.55-2.31-4.29-.53-1.68-.82-3.61-.82-5.78s.29-4.14.87-5.83c.58-1.64 1.4-3.08 2.45-4.24a9.9 9.9 0 0 1 3.8-2.6c1.45-.63 3.13-.91 4.91-.91.77 0 1.59.1 2.46.19.82.1 1.64.34 2.46.63.82.34 1.59.72 2.36 1.2.72.48 1.4 1.11 2.02 1.83.58.72 1.06 1.59 1.44 2.55s.63 2.12.72 3.42h-6.93c-.15-.67-.29-1.3-.53-1.78M234.58 44.02v5.39h-7.75v20.22h-6.64V49.41h-7.75v-5.39zM253.06 53.26v-9.24h6.64v25.61h-6.64V58.65h-9.78v10.98h-6.64V44.02h6.64v9.24zM270.89 59.81l9.34-15.79h6.98v25.61h-6.64V54.18h-.1l-9.05 15.45h-7.27V44.02h6.65v15.79zM307.98 44.02h8.86l-10.59 10.64 11.02 14.97h-8.66l-7.52-10.83-2.69 2.74v8.09h-6.65V44.02h6.65v9.72z" class="cls-2"/></svg>