<svg xmlns="http://www.w3.org/2000/svg" width="24" height="24" fill="none"><g clip-path="url(#a)"><path fill="#C1BEBE" d="M17.047 19.998H5.953A1.953 1.953 0 0 1 4 18.045V6.954C4 5.875 4.875 5 5.953 5h11.094C18.125 5 19 5.875 19 6.953v11.093a1.953 1.953 0 0 1-1.953 1.952"/><path fill="#FDFDFD" d="M11.078 9.007c.06-.171.065-.353.096-.53a7 7 0 0 0 .092-.748q.03-.411.053-.822c.038-.636.057-1.272.087-1.907h.188q.014.32.023.643c.015.588.05 1.175.086 1.762.022.347.05.695.105 1.038.055.349.114.7.235 1.034q.105.384.3.733c.46.839 1.153 1.4 2.055 1.708.783.269 1.599.337 2.416.394.728.05 1.457.063 2.186.094v.188c-.729.031-1.458.043-2.185.094-.79.055-1.58.12-2.339.368-1.3.425-2.115 1.312-2.483 2.621-.166.592-.233 1.2-.282 1.811-.067.836-.082 1.675-.117 2.512h-.188c-.031-.728-.043-1.458-.094-2.185-.055-.79-.12-1.58-.367-2.338-.425-1.3-1.313-2.115-2.622-2.483-.592-.166-1.2-.233-1.811-.282-.836-.067-1.675-.082-2.512-.117v-.188l1.133-.043c.853-.033 1.706-.07 2.55-.215.69-.118 1.347-.322 1.922-.74.82-.6 1.279-1.42 1.473-2.402"/></g><defs><clipPath id="a"><path fill="#fff" d="M4 5h15v15H4z"/></clipPath></defs></svg>