<svg width="32" height="32" viewBox="0 0 32 32" fill="none" xmlns="http://www.w3.org/2000/svg">
<path fill-rule="evenodd" clip-rule="evenodd" d="M20.6667 21.7619H10V21H20.6667V21.7619Z" fill="#394149"/>
<path d="M10.8117 19.3618L11.4549 17.1353H14.04L14.6831 19.3618H15.4948L13.147 11.5H12.3478L10 19.3618H10.8117ZM11.6984 16.2908L12.7224 12.7438H12.7724L13.7964 16.2908H11.6984Z" fill="#2574B7"/>
<path d="M17.8021 19.5C18.6388 19.5 19.0759 18.9472 19.2257 18.5633H19.2632V19.3618H20V15.477C20 13.6036 18.8386 13.3887 18.2267 13.3887C17.5023 13.3887 16.6781 13.6958 16.3035 14.7706L17.0028 15.0777C17.1652 14.6478 17.5492 14.1871 18.2516 14.1871C18.9291 14.1871 19.2632 14.6286 19.2632 15.3848V15.4155C19.2632 15.8532 18.901 15.8148 18.0268 15.953C17.1371 16.095 16.1661 16.3369 16.1661 17.6881C16.1661 18.8397 16.8904 19.5 17.8021 19.5ZM17.9145 18.6862C17.3275 18.6862 16.9029 18.3637 16.9029 17.7342C16.9029 17.0432 17.4149 16.8282 17.9894 16.7361C18.3016 16.69 19.1383 16.5825 19.2632 16.3983V17.2274C19.2632 17.9645 18.7886 18.6862 17.9145 18.6862Z" fill="#2574B7"/>
<path fill-rule="evenodd" clip-rule="evenodd" d="M5 25V28C5 28.5523 5.44772 29 6 29H25C25.5523 29 26 28.5523 26 28V25H25.3V28C25.3 28.1657 25.1657 28.3 25 28.3H6C5.83431 28.3 5.7 28.1657 5.7 28V25H5Z" fill="#394149"/>
<path d="M18 11.2155V3H22V11.5L20 9.5L18 11.2155Z" stroke="#394149" stroke-width="0.7"/>
<path fill-rule="evenodd" clip-rule="evenodd" d="M18 4H6C5.44772 4 5 4.44772 5 5V25C5 25.5523 5.44772 26 6 26H25C25.5523 26 26 25.5523 26 25V5C26 4.44772 25.5523 4 25 4H22V4.7H25C25.1657 4.7 25.3 4.83431 25.3 5V25C25.3 25.1657 25.1657 25.3 25 25.3H6C5.83431 25.3 5.7 25.1657 5.7 25V5C5.7 4.83431 5.83431 4.7 6 4.7H18V4Z" fill="#394149"/>
</svg>
