<svg xmlns="http://www.w3.org/2000/svg" width="190" height="36" fill="none"><path fill="#5082E6" d="m29.684 32.263-3.672 3.722-.016.015-8.07-8.07-8.058 8.058-3.724-3.725L16.217 22.19a2.4 2.4 0 0 1 3.394 0z"/><path fill="#E62D32" d="M29.684 3.737 26.012.015 25.996 0l-8.07 8.07L9.868.012 6.144 3.737 16.217 13.81a2.4 2.4 0 0 0 3.394 0z"/><path fill="#FABE00" fill-rule="evenodd" d="m35.783 26.475-3.107 3.065-10.073-10.073a2.4 2.4 0 0 1 0-3.394L32.676 6l3.244 3.243-8.685 8.685z" clip-rule="evenodd"/><path fill="#5AD2FF" d="M3.737 6.146.016 9.818 0 9.834l8.07 8.07L.012 25.96l3.725 3.725L13.81 19.613a2.4 2.4 0 0 0 0-3.394z"/><path fill="#243354" fill-rule="evenodd" d="M47.05 30.727h11.146q3.652 0 6.002-2.126t2.349-5.076q0-1.183-.446-2.211-.429-1.047-.96-1.647a7.2 7.2 0 0 0-1.235-1.097q-.703-.514-.977-.634a5 5 0 0 0-.429-.206l.291-.172q.275-.17.686-.583.429-.428.858-1.011.428-.584.703-1.458a6.3 6.3 0 0 0 .274-1.869q0-2.588-2.195-4.544Q60.94 6.14 57.596 6.14H47.051zm10.889-4.39h-5.607V20.01h5.607q1.44 0 2.383.926.96.909.96 2.247t-.96 2.246q-.942.909-2.383.909m-5.607-15.809h4.904q1.303 0 2.058.72t.754 1.92-.755 1.921q-.753.72-2.057.72h-4.904zm19.136-4.39v24.589h5.28v-8.608h4.562l4.732 8.608h5.624l-5.263-9.31.445-.24q.463-.207 1.115-.772a9.7 9.7 0 0 0 1.269-1.355q.634-.788 1.097-2.075a8.1 8.1 0 0 0 .463-2.76q0-3.396-2.4-5.727-2.384-2.35-6.036-2.35zm13.1 5.693q.96.944.96 2.384 0 1.337-.96 2.263-.943.909-2.384.909H76.75v-6.499h5.435q1.44 0 2.384.943m11.831 18.896V6.139h5.281v24.588zm14.763 0 5.967-8.95 5.967 8.95h5.967l-8.607-12.826L128.36 6.14h-5.967l-5.264 7.904-5.264-7.904h-5.984l7.905 11.762-8.608 12.826zM143.117 15.6V6.147h-2.023v3.784h-4.048V6.147h-2.03V15.6h2.03v-3.85h4.048v3.85zm9.526-1.82h-5.063v-2.095h3.843v-1.82h-3.843V7.973h4.924V6.147h-6.954V15.6h7.093zm8.299 1.82h-6.414V6.147h2.03v7.634h4.384zm5.53-9.453h-3.981V15.6h2.03v-3.104h1.951q1.464 0 2.42-.91.956-.917.956-2.261 0-1.352-.963-2.261-.955-.917-2.413-.917m-1.951 1.826h1.886q.606 0 1.008.396.41.39.409.956 0 .567-.409.956-.402.388-1.008.388h-1.886zM139.61 20.95q.745 0 1.418.198.672.19 1.101.468.434.276.764.553.336.277.481.468l.152.198-1.285 1.286-.112-.145a2.5 2.5 0 0 0-.31-.33 3 3 0 0 0-.521-.402 3.2 3.2 0 0 0-.745-.323 3 3 0 0 0-.943-.152q-1.325 0-2.214.89-.89.89-.89 2.215t.89 2.215 2.214.89q.515 0 .983-.139.475-.144.784-.336.31-.198.547-.395a2 2 0 0 0 .343-.343l.105-.138 1.22 1.285q-.052.08-.165.21-.106.126-.481.456a5 5 0 0 1-.798.573q-.421.244-1.114.448a5 5 0 0 1-1.424.205q-2.161 0-3.651-1.444-1.484-1.45-1.484-3.487t1.484-3.48q1.49-1.444 3.651-1.444m12.69 7.831h-5.063v-2.096h3.843v-1.82h-3.843v-1.891h4.924v-1.826h-6.954V30.6h7.093zm8.299-7.633h2.024V30.6h-1.754l-4.654-6.006v6.006h-2.03v-9.453h1.76l4.654 6.012zm10.929 0h-7.422v1.826h2.703V30.6h2.023v-7.627h2.696zm3.514 7.633h5.063v1.82h-7.093v-9.453h6.954v1.826h-4.924v1.892h3.843v1.819h-3.843zm6.948-7.633V30.6h2.03v-3.31h1.754l1.819 3.31h2.162l-2.024-3.58.172-.092a1.9 1.9 0 0 0 .428-.297 3.7 3.7 0 0 0 .488-.52q.244-.305.422-.798t.178-1.061q0-1.306-.923-2.202-.916-.903-2.32-.903zm5.036 2.188q.369.362.369.917 0 .513-.369.87-.363.35-.916.349h-2.09v-2.498h2.09q.553 0 .916.362" clip-rule="evenodd"/></svg>