<svg width="285" height="306" viewBox="0 0 285 306" fill="none" xmlns="http://www.w3.org/2000/svg">
<path d="M39.9326 210.412C43.6647 214.144 49.7191 214.144 53.4511 210.412C57.1832 206.68 57.1832 200.626 53.4511 196.894C49.7191 193.161 43.6647 193.161 39.9326 196.894C36.2005 200.626 36.2005 206.68 39.9326 210.412Z" stroke="#233255" stroke-width="2" stroke-miterlimit="10"/>
<path d="M140.338 41.6878C141.788 43.1377 144.14 43.1377 145.59 41.6878C147.04 40.2379 147.04 37.8858 145.59 36.4359C144.14 34.986 141.788 34.986 140.338 36.4359C138.888 37.8858 138.888 40.2379 140.338 41.6878Z" stroke="#233255" stroke-width="2" stroke-miterlimit="10"/>
<path d="M245.749 210.412C242.017 214.144 235.962 214.144 232.23 210.412C228.498 206.68 228.498 200.626 232.23 196.894C235.962 193.161 242.017 193.161 245.749 196.894C249.481 200.626 249.481 206.68 245.749 210.412Z" stroke="#233255" stroke-width="2" stroke-miterlimit="10"/>
<path d="M27.8132 294.355L21.3518 298.786L25.7833 305.248L32.2447 300.816L27.8132 294.355Z" fill="#233255"/>
<path d="M257.868 294.355L264.329 298.786L259.898 305.248L253.437 300.816L257.868 294.355Z" fill="#233255"/>
<path d="M64.9467 115.186L58.4854 119.617L62.9169 126.079L69.3782 121.647L64.9467 115.186Z" fill="#233255"/>
<path d="M220.735 115.186L227.196 119.617L222.764 126.079L216.303 121.647L220.735 115.186Z" fill="#233255"/>
<path d="M142.044 122.604L137.394 127.233L142.044 131.862L146.694 127.233L142.044 122.604Z" fill="#233255"/>
<path d="M142.973 88.9109L138.169 93.6927L142.973 93.6927H147.776L142.973 88.9109Z" fill="#233255"/>
<path d="M129.145 103.105L122.541 109.68L129.145 116.254L135.749 109.68L129.145 103.105Z" fill="#233255"/>
<path d="M142.04 103L135.436 109.574L142.04 116.148L148.644 109.574L142.04 103Z" fill="#233255"/>
<path d="M154.21 103.105L147.606 109.68L154.21 116.254L160.814 109.68L154.21 103.105Z" fill="#233255"/>
<path d="M176.384 243.124H105.831V251.479H176.384V243.124Z" stroke="#233255" stroke-width="2" stroke-miterlimit="10"/>
<path d="M168.958 251.479H113.257V258.906H168.958V251.479Z" stroke="#233255" stroke-width="2" stroke-miterlimit="10"/>
<path d="M184.964 167H98.1584V243.124H184.964V167Z" stroke="#233255" stroke-width="2" stroke-miterlimit="10"/>
<path d="M98.1584 167V171.758L102.915 167H98.1584Z" fill="#233255"/>
<path d="M98.1584 243.124H102.915L98.1584 238.366V243.124Z" fill="#233255"/>
<path d="M184.965 243.124V238.366L180.208 243.124H184.965Z" fill="#233255"/>
<path d="M184.964 167H180.208L184.964 171.735V167Z" fill="#233255"/>
<path d="M121.424 173.974L118.053 177.33L121.424 180.686L124.795 177.33L121.424 173.974Z" fill="#233255"/>
<path d="M133.49 173.964L130.118 177.32L133.49 180.676L136.861 177.32L133.49 173.964Z" fill="#233255"/>
<path d="M109.358 173.966L105.987 177.323L109.358 180.679L112.73 177.323L109.358 173.966Z" fill="#233255"/>
<path d="M105.293 233.014H136.21" stroke="#233255" stroke-width="2" stroke-miterlimit="10"/>
<path d="M105.293 223.498H155.831" stroke="#233255" stroke-width="2" stroke-miterlimit="10"/>
<path d="M105.293 213.983H155.831" stroke="#233255" stroke-width="2" stroke-miterlimit="10"/>
<path d="M105.293 186.626L175.451 186.626" stroke="#233255" stroke-width="2" stroke-miterlimit="10"/>
<path d="M216.303 76.1954V74.8029C216.303 34.0427 183.26 1 142.5 1V1C101.74 1 68.6971 34.0427 68.6971 74.8029V76.1954" stroke="#233255" stroke-width="2"/>
<path d="M175.456 92.9056V92.9056C175.456 75.4735 161.325 61.342 143.893 61.342H142.964C125.532 61.342 111.401 75.4735 111.401 92.9056V92.9056" stroke="#233255" stroke-width="2"/>
<path d="M152.248 38.1335V38.1335C152.248 33.0065 148.091 28.8502 142.964 28.8502H142.036C136.909 28.8502 132.752 33.0065 132.752 38.1335V38.1335" stroke="#233255" stroke-width="2"/>
<path d="M156.889 93.8339V93.3697C156.889 85.4228 150.447 78.9805 142.5 78.9805V78.9805C134.553 78.9805 128.111 85.4228 128.111 93.3697V93.8339" stroke="#233255" stroke-width="2"/>
<path fill-rule="evenodd" clip-rule="evenodd" d="M69.3909 64.641C59.4679 66.1201 50.3452 67.8905 42.2179 69.9024C29.4079 73.0736 19.1829 76.8183 12.2086 80.9003C5.09481 85.0639 2 89.1881 2 92.9055C2 96.6229 5.09481 100.747 12.2086 104.911C19.1829 108.993 29.4079 112.737 42.2179 115.909C67.8068 122.243 103.263 126.182 142.5 126.182C181.737 126.182 217.193 122.243 242.782 115.909C255.592 112.737 265.817 108.993 272.791 104.911C279.905 100.747 283 96.6229 283 92.9055C283 89.1881 279.905 85.0639 272.791 80.9003C265.817 76.8183 255.592 73.0736 242.782 69.9024C234.655 67.8905 225.532 66.1201 215.609 64.641C215.514 63.9483 215.409 63.2588 215.294 62.5724C257.035 68.7245 285 80.0066 285 92.9055C285 112.388 221.201 128.182 142.5 128.182C63.7994 128.182 0 112.388 0 92.9055C0 80.0066 27.9655 68.7245 69.7058 62.5724C69.5913 63.2588 69.4863 63.9483 69.3909 64.641Z" fill="#233255"/>
<path fill-rule="evenodd" clip-rule="evenodd" d="M69.3909 64.3389C59.4679 65.8181 50.3452 67.5884 42.2179 69.6004C29.4079 72.7716 19.1829 76.5162 12.2086 80.5982C5.09481 84.7619 2 88.8861 2 92.6035C2 96.3209 5.09481 100.445 12.2086 104.609C19.1829 108.691 29.4079 112.435 42.2179 115.607C67.8068 121.941 103.263 125.88 142.5 125.88C181.737 125.88 217.193 121.941 242.782 115.607C255.592 112.435 265.817 108.691 272.791 104.609C279.905 100.445 283 96.3209 283 92.6035C283 88.8861 279.905 84.7619 272.791 80.5982C265.817 76.5162 255.592 72.7716 242.782 69.6004C234.655 67.5884 225.532 65.8181 215.609 64.3389C215.514 63.6463 215.409 62.9567 215.294 62.2704C257.035 68.4225 285 79.7045 285 92.6035C285 112.086 221.201 127.88 142.5 127.88C63.7994 127.88 0 112.086 0 92.6035C0 79.7045 27.9655 68.4225 69.7058 62.2704C69.5913 62.9567 69.4863 63.6463 69.3909 64.3389Z" fill="#233255"/>
<path fill-rule="evenodd" clip-rule="evenodd" d="M69.3909 64.3389C59.4679 65.8181 50.3452 67.5884 42.2179 69.6004C29.4079 72.7716 19.1829 76.5162 12.2086 80.5982C5.09481 84.7619 2 88.8861 2 92.6035C2 96.3209 5.09481 100.445 12.2086 104.609C19.1829 108.691 29.4079 112.435 42.2179 115.607C67.8068 121.941 103.263 125.88 142.5 125.88C181.737 125.88 217.193 121.941 242.782 115.607C255.592 112.435 265.817 108.691 272.791 104.609C279.905 100.445 283 96.3209 283 92.6035C283 88.8861 279.905 84.7619 272.791 80.5982C265.817 76.5162 255.592 72.7716 242.782 69.6004C234.655 67.5884 225.532 65.8181 215.609 64.3389C215.514 63.6463 215.409 62.9567 215.294 62.2704C257.035 68.4225 285 79.7045 285 92.6035C285 112.086 221.201 127.88 142.5 127.88C63.7994 127.88 0 112.086 0 92.6035C0 79.7045 27.9655 68.4225 69.7058 62.2704C69.5913 62.9567 69.4863 63.6463 69.3909 64.3389Z" fill="#233255"/>
<path fill-rule="evenodd" clip-rule="evenodd" d="M216.303 74.803V76.1955L215.231 76.1955C215.231 77.6092 214.028 79.5351 210.346 81.698C206.801 83.7801 201.538 85.7241 194.861 87.3832C181.536 90.6936 163.023 92.7622 142.5 92.7622C121.977 92.7622 103.464 90.6936 90.1393 87.3832C83.4615 85.7241 78.1992 83.7801 74.6545 81.698C70.9723 79.5351 69.7687 77.6092 69.7687 76.1955H68.6971V74.803C68.6971 74.2791 68.7025 73.7565 68.7134 73.2352C68.0917 74.1992 67.7687 75.188 67.7687 76.1955C67.7687 86.4496 101.227 94.7622 142.5 94.7622C183.773 94.7622 217.231 86.4496 217.231 76.1955C217.231 75.188 216.908 74.1992 216.287 73.2353C216.297 73.7565 216.303 74.2791 216.303 74.803Z" fill="#233255"/>
<path d="M64.0554 121.22L48.7378 194.094" stroke="#233255" stroke-width="2"/>
<path d="M221.626 121.22L236.943 194.094" stroke="#233255" stroke-width="2"/>
<path d="M44.5601 212.661L26.9218 299.461" stroke="#233255" stroke-width="2"/>
<path d="M241.121 212.661L258.759 299.461" stroke="#233255" stroke-width="2"/>
<line x1="143.036" y1="42.7753" x2="143.036" y2="61.342" stroke="#233255" stroke-width="2"/>
</svg>
