<svg width="198" height="19" viewBox="0 0 198 19" fill="none" xmlns="http://www.w3.org/2000/svg">
<path d="M14.706 6.46848V8.73066L17.4432 5.99347C17.3227 4.36581 16.5917 2.8438 15.3965 1.73236C14.2013 0.620919 12.6303 0.00214373 10.9982 0H8.73047V2.75372H10.9982C11.9841 2.75372 12.9297 3.14538 13.6268 3.84255C14.324 4.53972 14.7157 5.48529 14.7157 6.47124" fill="#FABE00"/>
<path d="M10.9982 14.7061H8.73193L11.4691 17.4433C13.0987 17.3244 14.623 16.5935 15.736 15.3972C16.849 14.201 17.4683 12.628 17.4695 10.9941V8.73193H14.7158V10.9941C14.7158 11.9801 14.3241 12.9256 13.6269 13.6228C12.9298 14.32 11.9842 14.7116 10.9982 14.7116" fill="#5082E6"/>
<path d="M2.75762 10.9941V8.73193L0.019043 11.4691C0.139611 13.0977 0.87146 14.6205 2.06782 15.7321C3.26417 16.8437 4.83656 17.4618 6.46962 17.4626H8.7318V14.7089H6.46962C5.48367 14.7089 4.53811 14.3172 3.84094 13.62C3.14377 12.9229 2.7521 11.9773 2.7521 10.9914" fill="#5AD2FF"/>
<path d="M6.46848 2.73444H8.73066L5.99347 0C4.36487 0.120568 2.84207 0.852422 1.73049 2.04878C0.618916 3.24514 0.000755051 4.81753 0 6.45058V8.71276H2.75372V6.44783C2.75372 5.46188 3.14539 4.51632 3.84256 3.81915C4.53973 3.12198 5.48529 2.73031 6.47123 2.73031" fill="#E62D32"/>
<path d="M29.2819 13.0349H36.3039V15.5584H26.4658V2.44702H36.1119V4.97969H29.2819V7.60379H34.6124V10.1273H29.2819V13.0349Z" fill="#233255"/>
<path d="M47.8152 15.5584H38.9189V2.44702H41.735V13.0349H47.8152V15.5584Z" fill="#233255"/>
<path d="M56.9858 8.16153L61.5209 2.44702H64.0078V15.5584H61.2008V6.81747L56.9858 12.1845L52.78 6.85405V15.5584H49.9639V2.44702H52.4965L56.9858 8.16153Z" fill="#233255"/>
<path d="M74.1202 10.0359L72.5293 5.72943L70.9292 10.0359H74.1202ZM75.0528 12.468H69.9966L68.872 15.5584H65.873L71.0298 2.44702H74.0196L79.1764 15.5584H76.1774L75.0528 12.468Z" fill="#233255"/>
<path d="M90.1391 8.62783C90.2 8.64002 90.2854 8.66745 90.3951 8.71012C90.5109 8.74669 90.709 8.84727 90.9894 9.01184C91.2698 9.17033 91.5167 9.35928 91.73 9.57872C91.9433 9.79816 92.1353 10.1151 92.306 10.5296C92.4828 10.938 92.5712 11.3982 92.5712 11.9102C92.5712 12.9465 92.1658 13.8455 91.3551 14.6075C90.5444 15.3633 89.4838 15.7412 88.1733 15.7412C87.6125 15.7412 87.0792 15.6742 86.5732 15.5401C86.0673 15.3999 85.6498 15.2384 85.3206 15.0555C84.9976 14.8665 84.7111 14.6745 84.4612 14.4795C84.2112 14.2844 84.0314 14.1198 83.9217 13.9857L83.7663 13.7755L84.708 12.8428C84.7324 12.8794 84.7751 12.9373 84.836 13.0166C84.897 13.0897 85.0341 13.2177 85.2475 13.4006C85.4608 13.5773 85.6924 13.7389 85.9423 13.8852C86.1923 14.0254 86.5153 14.1534 86.9115 14.2692C87.3138 14.3789 87.7344 14.4338 88.1733 14.4338C89.1242 14.4338 89.877 14.193 90.4317 13.7114C90.9864 13.2299 91.2637 12.6295 91.2637 11.9102C91.2637 11.2093 90.9772 10.6119 90.4042 10.1182C89.8374 9.62444 89.0937 9.37757 88.1733 9.37757H86.8567V8.07009H88.1733C88.9596 8.07009 89.5752 7.8598 90.0202 7.43921C90.4713 7.01253 90.6968 6.4426 90.6968 5.72943C90.6968 5.1077 90.4682 4.59263 90.0111 4.18423C89.56 3.77584 88.9474 3.57164 88.1733 3.57164C87.8137 3.57164 87.4601 3.62345 87.1127 3.72707C86.7713 3.8246 86.4879 3.94956 86.2624 4.10194C86.0368 4.24823 85.8387 4.39757 85.6681 4.54996C85.5035 4.69625 85.3816 4.82121 85.3023 4.92483L85.1743 5.07112L84.2417 4.03794C84.2783 3.98918 84.3301 3.92518 84.3971 3.84593C84.4642 3.76669 84.6196 3.6265 84.8635 3.42535C85.1073 3.2242 85.3694 3.04743 85.6498 2.89504C85.9302 2.73656 86.2989 2.59332 86.7561 2.46531C87.2133 2.33121 87.6857 2.26416 88.1733 2.26416C89.3192 2.26416 90.261 2.60246 90.9985 3.27906C91.7361 3.94956 92.1049 4.76635 92.1049 5.72943C92.1049 6.15612 92.0348 6.54318 91.8946 6.89062C91.7605 7.23806 91.5959 7.51541 91.4008 7.72265C91.2058 7.9299 91.0138 8.10667 90.8248 8.25296C90.642 8.39315 90.4804 8.49373 90.3402 8.55468L90.1391 8.62783Z" fill="#233255"/>
<path d="M99.3006 7.12834C100.562 7.12834 101.611 7.54284 102.446 8.37182C103.287 9.19471 103.708 10.2187 103.708 11.4439C103.708 12.663 103.281 13.684 102.428 14.5069C101.58 15.3298 100.507 15.7412 99.2091 15.7412C97.9108 15.7412 96.838 15.3298 95.9907 14.5069C95.1435 13.684 94.7198 12.66 94.7198 11.4348C94.7198 10.9593 94.796 10.49 94.9484 10.0267C95.1069 9.55739 95.2593 9.20385 95.4056 8.96613L95.6524 8.62783L99.584 2.44702H100.992L97.9017 7.32035C98.2613 7.19235 98.7276 7.12834 99.3006 7.12834ZM101.458 13.6109C102.019 13.0623 102.3 12.34 102.3 11.4439C102.3 10.5418 102.019 9.81644 101.458 9.26785C100.898 8.71926 100.148 8.44496 99.2091 8.44496C98.2765 8.44496 97.5268 8.71926 96.9599 9.26785C96.3991 9.81644 96.1187 10.5418 96.1187 11.4439C96.1187 12.34 96.3991 13.0623 96.9599 13.6109C97.5268 14.1595 98.2765 14.4338 99.2091 14.4338C100.148 14.4338 100.898 14.1595 101.458 13.6109Z" fill="#233255"/>
<path d="M110.538 7.12834C111.799 7.12834 112.848 7.54284 113.683 8.37182C114.518 9.19471 114.935 10.2157 114.935 11.4348C114.935 12.7087 114.524 13.745 113.701 14.5435C112.878 15.342 111.793 15.7412 110.446 15.7412C109.91 15.7412 109.392 15.6742 108.892 15.5401C108.392 15.3999 107.981 15.2384 107.657 15.0555C107.34 14.8665 107.06 14.6745 106.816 14.4795C106.572 14.2844 106.402 14.1198 106.304 13.9857L106.14 13.7755L107.072 12.8428C107.097 12.8794 107.139 12.9373 107.2 13.0166C107.267 13.0897 107.404 13.2177 107.612 13.4006C107.825 13.5773 108.051 13.7389 108.288 13.8852C108.526 14.0254 108.837 14.1534 109.221 14.2692C109.611 14.3789 110.019 14.4338 110.446 14.4338C111.385 14.4338 112.135 14.1595 112.695 13.6109C113.256 13.0623 113.537 12.3369 113.537 11.4348C113.537 10.5509 113.256 9.83168 112.695 9.277C112.141 8.72231 111.421 8.44496 110.538 8.44496C109.952 8.44496 109.416 8.56383 108.928 8.80155C108.441 9.03927 108.102 9.26785 107.913 9.48729L107.63 9.84387H106.606L107.072 2.44702H114.094V3.76365H108.288L108.005 7.87809C108.078 7.82932 108.182 7.76227 108.316 7.67694C108.45 7.5855 108.733 7.47274 109.166 7.33864C109.605 7.19844 110.062 7.12834 110.538 7.12834Z" fill="#233255"/>
<path d="M139.693 6.54843H138.527C138.345 5.66372 137.901 4.93404 137.194 4.35939C136.487 3.78475 135.644 3.49742 134.664 3.49742C134.056 3.49742 133.49 3.61731 132.965 3.85709C132.44 4.09687 131.979 4.44208 131.582 4.8927C131.185 5.33919 130.871 5.9097 130.639 6.60424C130.412 7.29877 130.298 8.07393 130.298 8.9297C130.298 9.7896 130.412 10.5668 130.639 11.2614C130.871 11.9559 131.185 12.5264 131.582 12.9729C131.979 13.4194 132.44 13.7625 132.965 14.0023C133.49 14.2421 134.056 14.362 134.664 14.362C135.644 14.362 136.487 14.0767 137.194 13.5062C137.901 12.9316 138.345 12.1998 138.527 11.311H139.693C139.59 11.8939 139.395 12.4375 139.11 12.9419C138.825 13.4463 138.467 13.8845 138.037 14.2565C137.612 14.6286 137.107 14.9221 136.524 15.1371C135.945 15.348 135.325 15.4534 134.664 15.4534C133.87 15.4534 133.134 15.2984 132.456 14.9883C131.778 14.6782 131.197 14.2441 130.714 13.686C130.234 13.1279 129.858 12.4417 129.585 11.6272C129.312 10.8087 129.176 9.90949 129.176 8.9297C129.176 7.9499 129.312 7.05279 129.585 6.23836C129.858 5.4198 130.234 4.73147 130.714 4.17336C131.197 3.61525 131.778 3.18116 132.456 2.8711C133.134 2.56104 133.87 2.40601 134.664 2.40601C135.325 2.40601 135.945 2.51349 136.524 2.72847C137.107 2.93931 137.612 3.23077 138.037 3.60284C138.467 3.97492 138.825 4.41314 139.11 4.9175C139.395 5.42187 139.59 5.96551 139.693 6.54843Z" fill="#233255"/>
<path d="M142.2 15.2798V5.75467H149.412V15.2798H148.302V6.79647H143.31V15.2798H142.2Z" fill="#233255"/>
<path d="M152.316 18.8517V5.75467H153.388V7.57163H153.525C154.108 6.2735 155.077 5.62444 156.433 5.62444C157.21 5.62444 157.897 5.82908 158.492 6.23836C159.092 6.64764 159.555 7.22436 159.881 7.96851C160.208 8.71265 160.371 9.57049 160.371 10.542C160.371 11.2696 160.276 11.9414 160.086 12.5574C159.896 13.1693 159.629 13.6902 159.286 14.1201C158.947 14.5459 158.533 14.8787 158.046 15.1185C157.558 15.3583 157.027 15.4782 156.452 15.4782C156.121 15.4782 155.811 15.4368 155.522 15.3542C155.232 15.2715 154.986 15.1681 154.784 15.0441C154.581 14.9159 154.393 14.763 154.219 14.5852C154.05 14.4033 153.911 14.2276 153.804 14.0581C153.701 13.8886 153.608 13.7067 153.525 13.5124H153.426V18.8517H152.316ZM153.407 10.5234C153.407 11.2924 153.519 11.9724 153.742 12.5636C153.969 13.1548 154.304 13.6199 154.747 13.9589C155.189 14.2979 155.712 14.4674 156.315 14.4674C156.931 14.4674 157.465 14.2917 157.915 13.9403C158.366 13.5889 158.703 13.1197 158.926 12.5326C159.149 11.9414 159.261 11.2717 159.261 10.5234C159.261 9.7834 159.149 9.124 158.926 8.54522C158.707 7.9623 158.372 7.49721 157.922 7.14994C157.471 6.80268 156.936 6.62904 156.315 6.62904C155.708 6.62904 155.183 6.79647 154.74 7.13134C154.298 7.46207 153.965 7.9189 153.742 8.50181C153.519 9.08473 153.407 9.75859 153.407 10.5234Z" fill="#233255"/>
<path d="M165.448 15.4968C164.865 15.4968 164.338 15.3872 163.867 15.1681C163.4 14.9449 163.024 14.6142 162.738 14.1759C162.457 13.7336 162.317 13.2147 162.317 12.6194C162.317 12.2515 162.377 11.9249 162.497 11.6396C162.616 11.3502 162.778 11.1084 162.98 10.9141C163.183 10.7198 163.443 10.5524 163.762 10.4118C164.08 10.2671 164.413 10.1555 164.76 10.0769C165.111 9.99424 165.517 9.92396 165.975 9.86608C166.095 9.84955 166.267 9.82887 166.49 9.80407C166.763 9.771 166.961 9.74619 167.085 9.72965C167.214 9.71312 167.371 9.68831 167.557 9.65524C167.747 9.62217 167.883 9.58909 167.966 9.55602C168.049 9.51881 168.135 9.47127 168.226 9.41339C168.322 9.35551 168.386 9.2873 168.419 9.20875C168.452 9.1302 168.468 9.03925 168.468 8.9359V8.71265C168.468 8.05532 168.272 7.54269 167.879 7.17475C167.491 6.80268 166.939 6.61664 166.223 6.61664C165.574 6.61664 165.027 6.75927 164.58 7.04452C164.138 7.32978 163.824 7.69358 163.638 8.13594L162.59 7.75766C162.747 7.38146 162.955 7.05279 163.216 6.77167C163.476 6.49055 163.768 6.26937 164.09 6.10814C164.413 5.94277 164.748 5.82081 165.095 5.74227C165.446 5.66372 165.812 5.62444 166.192 5.62444C166.507 5.62444 166.811 5.65338 167.104 5.71126C167.402 5.765 167.703 5.86629 168.009 6.01512C168.315 6.16395 168.58 6.35412 168.803 6.58563C169.031 6.81301 169.215 7.11894 169.355 7.50341C169.5 7.88376 169.572 8.31991 169.572 8.81187V15.2798H168.468V13.7729H168.4C168.297 13.9961 168.16 14.2069 167.991 14.4054C167.821 14.5997 167.617 14.7816 167.377 14.9511C167.137 15.1165 166.85 15.2487 166.515 15.348C166.184 15.4472 165.829 15.4968 165.448 15.4968ZM165.597 14.486C166.168 14.486 166.674 14.3558 167.116 14.0953C167.559 13.8349 167.894 13.4897 168.121 13.0597C168.353 12.6298 168.468 12.1523 168.468 11.6272V10.2506C168.245 10.4697 167.414 10.664 165.975 10.8335C165.124 10.9368 164.485 11.1311 164.059 11.4164C163.633 11.6975 163.421 12.1151 163.421 12.669C163.421 13.2313 163.623 13.6757 164.028 14.0023C164.433 14.3248 164.956 14.486 165.597 14.486Z" fill="#233255"/>
<path d="M172.49 15.2798V5.75467H176.328C177.292 5.75467 178.065 5.98825 178.648 6.45541C179.231 6.92257 179.52 7.52615 179.516 8.26617C179.52 9.33278 178.947 9.99424 177.798 10.2506C177.972 10.2878 178.147 10.3456 178.325 10.4242C178.503 10.4986 178.681 10.6061 178.858 10.7467C179.04 10.8872 179.2 11.0484 179.336 11.2304C179.477 11.4123 179.59 11.6355 179.677 11.9001C179.764 12.1605 179.807 12.4417 179.807 12.7434C179.807 13.4669 179.543 14.0705 179.013 14.5542C178.484 15.0379 177.784 15.2798 176.911 15.2798H172.49ZM173.513 14.1573H176.911C177.457 14.1532 177.885 14.0209 178.195 13.7605C178.509 13.5 178.666 13.1445 178.666 12.6938C178.666 12.1523 178.509 11.7264 178.195 11.4164C177.885 11.1022 177.457 10.943 176.911 10.9389H173.513V14.1573ZM173.513 9.77306H176.31C176.959 9.77306 177.469 9.64077 177.841 9.37618C178.214 9.10746 178.4 8.74159 178.4 8.27857C178.4 7.84035 178.214 7.49515 177.841 7.24296C177.474 6.99078 176.969 6.86469 176.328 6.86469H173.513V9.77306Z" fill="#233255"/>
<path d="M182.212 15.2798V5.75467H183.316V10.0397H184.351L187.892 5.75467H189.318L185.498 10.3374L189.405 15.2798H187.973L184.698 11.0815H183.316V15.2798H182.212Z" fill="#233255"/>
<path d="M193.876 15.4968C193.293 15.4968 192.766 15.3872 192.295 15.1681C191.828 14.9449 191.452 14.6142 191.166 14.1759C190.885 13.7336 190.745 13.2147 190.745 12.6194C190.745 12.2515 190.805 11.9249 190.924 11.6396C191.044 11.3502 191.206 11.1084 191.408 10.9141C191.611 10.7198 191.871 10.5524 192.19 10.4118C192.508 10.2671 192.841 10.1555 193.188 10.0769C193.539 9.99424 193.944 9.92396 194.403 9.86608C194.523 9.84955 194.695 9.82887 194.918 9.80407C195.191 9.771 195.389 9.74619 195.513 9.72965C195.642 9.71312 195.799 9.68831 195.985 9.65524C196.175 9.62217 196.311 9.58909 196.394 9.55602C196.477 9.51881 196.563 9.47127 196.654 9.41339C196.75 9.35551 196.814 9.2873 196.847 9.20875C196.88 9.1302 196.896 9.03925 196.896 8.9359V8.71265C196.896 8.05532 196.7 7.54269 196.307 7.17475C195.919 6.80268 195.367 6.61664 194.651 6.61664C194.002 6.61664 193.455 6.75927 193.008 7.04452C192.566 7.32978 192.252 7.69358 192.066 8.13594L191.018 7.75766C191.175 7.38146 191.383 7.05279 191.644 6.77167C191.904 6.49055 192.196 6.26937 192.518 6.10814C192.841 5.94277 193.176 5.82081 193.523 5.74227C193.874 5.66372 194.24 5.62444 194.62 5.62444C194.935 5.62444 195.238 5.65338 195.532 5.71126C195.83 5.765 196.131 5.86629 196.437 6.01512C196.743 6.16395 197.008 6.35412 197.231 6.58563C197.459 6.81301 197.642 7.11894 197.783 7.50341C197.928 7.88376 198 8.31991 198 8.81187V15.2798H196.896V13.7729H196.828C196.725 13.9961 196.588 14.2069 196.419 14.4054C196.249 14.5997 196.045 14.7816 195.805 14.9511C195.565 15.1165 195.278 15.2487 194.943 15.348C194.612 15.4472 194.257 15.4968 193.876 15.4968ZM194.025 14.486C194.596 14.486 195.102 14.3558 195.544 14.0953C195.987 13.8349 196.322 13.4897 196.549 13.0597C196.781 12.6298 196.896 12.1523 196.896 11.6272V10.2506C196.673 10.4697 195.842 10.664 194.403 10.8335C193.552 10.9368 192.913 11.1311 192.487 11.4164C192.061 11.6975 191.848 12.1151 191.848 12.669C191.848 13.2313 192.051 13.6757 192.456 14.0023C192.861 14.3248 193.384 14.486 194.025 14.486Z" fill="#233255"/>
<circle cx="122" cy="10" r="1" fill="#233255"/>
</svg>
