<svg width="32" height="32" viewBox="0 0 32 32" fill="none" xmlns="http://www.w3.org/2000/svg">
<path fill-rule="evenodd" clip-rule="evenodd" d="M16.0007 3.04764H15.2387V10.3006C15.3764 10.2907 15.5153 10.2857 15.6554 10.2857C15.7713 10.2857 15.8864 10.2892 16.0007 10.2959V3.04764ZM17.3881 10.5514C17.6321 10.6284 17.8691 10.7213 18.0978 10.8287L19.5206 7.26992L18.8132 6.98707L17.3881 10.5514ZM19.4048 11.6762C19.5975 11.842 19.779 12.0205 19.9482 12.2102L25.0637 7.09475L24.5249 6.556L19.4048 11.6762ZM20.8167 13.4983C20.9284 13.7251 21.0256 13.9603 21.1071 14.2027L24.6256 12.7869L24.3412 12.0801L20.8167 13.4983ZM21.3905 15.6191C21.4004 15.7567 21.4054 15.8956 21.4054 16.0357C21.4054 16.1516 21.402 16.2668 21.3952 16.381H28.5721V15.6191H21.3905ZM21.1319 17.7931C21.0538 18.0367 20.9599 18.2732 20.8514 18.5015L24.3504 19.9002L24.6332 19.1928L21.1319 17.7931ZM19.9818 19.8233C19.8143 20.0145 19.6343 20.1945 19.4431 20.3621L24.4932 25.4122L25.032 24.8735L19.9818 19.8233ZM18.1051 21.2393C17.8765 21.3471 17.6397 21.4403 17.3958 21.5176L18.7846 25.0229L19.4929 24.7422L18.1051 21.2393ZM16.0006 21.7755C15.8864 21.7823 15.7713 21.7857 15.6554 21.7857C15.5153 21.7857 15.3763 21.7807 15.2387 21.7709V28.9524H16.0006V21.7755ZM13.8347 21.4915C13.5921 21.4106 13.3567 21.3139 13.1296 21.2027L11.7194 24.73L12.4269 25.0129L13.8347 21.4915ZM11.8299 20.3286C11.6401 20.1594 11.4617 19.9778 11.2958 19.7851L6.20749 24.8734L6.74624 25.4122L11.8299 20.3286ZM10.4537 18.4893C10.3457 18.2608 10.2523 18.024 10.1748 17.7802L6.61398 19.213L6.89839 19.9198L10.4537 18.4893ZM9.9156 16.381C9.90884 16.2668 9.90541 16.1516 9.90541 16.0357C9.90541 15.8956 9.91042 15.7567 9.92028 15.6191H2.66732V16V16.381H9.85482H9.9156ZM10.1914 14.24C10.2712 13.9969 10.3668 13.7611 10.4769 13.5336L6.88996 12.0996L6.60714 12.8071L10.1914 14.24ZM11.3291 12.2481C11.4966 12.0569 11.6766 11.8769 11.8678 11.7093L6.71452 6.55604L6.17578 7.09479L11.3291 12.2481ZM13.1692 10.8496C13.397 10.7401 13.6332 10.6453 13.8765 10.5662L12.4545 6.97723L11.7462 7.25787L13.1692 10.8496ZM11.2834 5.80359C11.6236 5.80359 11.8995 5.52777 11.8995 5.18752C11.8995 4.84727 11.6236 4.57145 11.2834 4.57145C10.9431 4.57145 10.6673 4.84727 10.6673 5.18752C10.6673 5.52777 10.9431 5.80359 11.2834 5.80359ZM5.42327 11.6637C5.42327 12.004 5.14744 12.2798 4.8072 12.2798C4.46695 12.2798 4.19113 12.004 4.19113 11.6637C4.19113 11.3235 4.46695 11.0476 4.8072 11.0476C5.14744 11.0476 5.42327 11.3235 5.42327 11.6637ZM4.8072 21.0417C5.14744 21.0417 5.42327 20.7659 5.42327 20.4256C5.42327 20.0854 5.14744 19.8095 4.8072 19.8095C4.46695 19.8095 4.19113 20.0854 4.19113 20.4256C4.19113 20.7659 4.46695 21.0417 4.8072 21.0417ZM11.8995 26.9018C11.8995 27.2421 11.6236 27.5179 11.2834 27.5179C10.9431 27.5179 10.6673 27.2421 10.6673 26.9018C10.6673 26.5616 10.9431 26.2857 11.2834 26.2857C11.6236 26.2857 11.8995 26.5616 11.8995 26.9018ZM20.0453 5.80359C20.3855 5.80359 20.6614 5.52777 20.6614 5.18752C20.6614 4.84727 20.3855 4.57145 20.0453 4.57145C19.705 4.57145 19.4292 4.84727 19.4292 5.18752C19.4292 5.52777 19.705 5.80359 20.0453 5.80359ZM27.1376 11.6637C27.1376 12.004 26.8617 12.2798 26.5215 12.2798C26.1812 12.2798 25.9054 12.004 25.9054 11.6637C25.9054 11.3235 26.1812 11.0476 26.5215 11.0476C26.8617 11.0476 27.1376 11.3235 27.1376 11.6637ZM26.5215 21.0417C26.8617 21.0417 27.1376 20.7659 27.1376 20.4256C27.1376 20.0854 26.8617 19.8095 26.5215 19.8095C26.1812 19.8095 25.9054 20.0854 25.9054 20.4256C25.9054 20.7659 26.1812 21.0417 26.5215 21.0417ZM20.6614 26.9018C20.6614 27.2421 20.3855 27.5179 20.0453 27.5179C19.705 27.5179 19.4292 27.2421 19.4292 26.9018C19.4292 26.5616 19.705 26.2857 20.0453 26.2857C20.3855 26.2857 20.6614 26.5616 20.6614 26.9018Z" fill="#394149"/>
<path fill-rule="evenodd" clip-rule="evenodd" d="M15.71 14.4145C15.3429 15.1837 14.7275 15.8085 13.9625 16.1872C14.7275 16.5659 15.3429 17.1907 15.71 17.9599C16.0772 17.1907 16.6925 16.5659 17.4575 16.1872C16.6925 15.8085 16.0772 15.1837 15.71 14.4145ZM16.0693 13.2067C15.9498 12.8676 15.4702 12.8676 15.3507 13.2067L15.1465 13.7862C14.8511 14.6245 14.2044 15.2921 13.3759 15.614L12.8144 15.8321C12.4904 15.958 12.4904 16.4164 12.8144 16.5423L13.3759 16.7604C14.2044 17.0823 14.8511 17.7499 15.1465 18.5882L15.3507 19.1677C15.4702 19.5068 15.9498 19.5068 16.0693 19.1677L16.2735 18.5882C16.5689 17.7499 17.2156 17.0823 18.0441 16.7604L18.6056 16.5423C18.9296 16.4164 18.9296 15.958 18.6056 15.8321L18.0441 15.614C17.2156 15.2921 16.5689 14.6245 16.2735 13.7862L16.0693 13.2067Z" fill="#2574B7"/>
</svg>
