<svg width="16" height="18" viewBox="0 0 16 18" fill="none" xmlns="http://www.w3.org/2000/svg">
<path fill-rule="evenodd" clip-rule="evenodd" d="M12.0584 6.95677C12.0584 9.77432 9.77432 12.0584 6.95677 12.0584C4.13921 12.0584 1.85514 9.77432 1.85514 6.95677C1.85514 4.13922 4.13921 1.85514 6.95677 1.85514C9.77432 1.85514 12.0584 4.13922 12.0584 6.95677ZM10.2858 13.0668C9.29697 13.6067 8.1627 13.9135 6.95677 13.9135C3.11465 13.9135 0 10.7989 0 6.95677C0 3.11465 3.11465 0 6.95677 0C10.7989 0 13.9135 3.11465 13.9135 6.95677C13.9135 8.92501 13.0961 10.7023 11.7823 11.9678L15.681 16.8412L14.2324 18.0001L10.2858 13.0668Z" fill="#272727"/>
</svg>
