<svg width="26" height="26" viewBox="0 0 26 26" fill="none" xmlns="http://www.w3.org/2000/svg">
<circle cx="13" cy="13" r="13" fill="#F2BF43"/>
<path d="M14.6294 6L14.3026 16.0923H11.3836L11.0569 6H14.6294ZM12.8467 20.7514C12.3353 20.7514 11.8973 20.5715 11.5328 20.2116C11.1729 19.8518 10.9954 19.4162 11.0001 18.9048C10.9954 18.4029 11.1729 17.9744 11.5328 17.6193C11.8973 17.2595 12.3353 17.0795 12.8467 17.0795C13.3391 17.0795 13.7676 17.2595 14.1322 17.6193C14.5015 17.9744 14.6885 18.4029 14.6933 18.9048C14.6885 19.4115 14.5015 19.8471 14.1322 20.2116C13.7676 20.5715 13.3391 20.7514 12.8467 20.7514Z" fill="white"/>
</svg>
