<svg width="291" height="30" viewBox="0 0 291 30" fill="none" xmlns="http://www.w3.org/2000/svg">
<path d="M36.6181 15.8864C36.6181 17.6068 36.1736 18.8923 35.3813 19.703C34.589 20.5138 33.5069 20.9687 32.1735 20.9687C31.0141 20.9687 30.0478 20.6918 29.4101 19.9601C28.7918 19.3273 28.4246 18.3188 28.4246 17.0531V7.69928H25.7579V17.2509C25.7579 19.1691 26.299 20.7116 27.3618 21.8981C28.4246 23.0847 29.8546 23.6186 31.6324 23.6186C33.8547 23.6186 35.4586 22.7089 36.5214 20.9885V23.1638H39.1882V7.69928H36.5214L36.6181 15.8864Z" fill="white"/>
<path d="M47.0145 7.69928H44.3478V23.1638H47.0145V7.69928Z" fill="white"/>
<path d="M45.6797 1.25208C45.2353 1.25208 44.7908 1.43006 44.443 1.80579C44.0952 2.18153 43.9019 2.61659 43.9019 3.07143C43.9019 3.52627 44.0758 3.9811 44.443 4.33706C44.8102 4.69302 45.158 4.89078 45.6797 4.89078C46.2208 4.89078 46.5687 4.7128 46.9165 4.33706C47.2643 3.9811 47.4576 3.52627 47.4576 3.07143C47.4576 2.61659 47.2837 2.16175 46.9165 1.80579C46.5687 1.43006 46.1242 1.25208 45.6797 1.25208Z" fill="white"/>
<path d="M62.1084 19.8801C61.3161 20.335 60.3306 20.6118 59.3451 20.6118C57.8378 20.6118 56.5044 20.157 55.5189 19.0693C54.5333 17.9817 54.0116 16.6963 54.0116 15.1538C54.0116 13.6113 54.5527 12.3259 55.5189 11.2382C56.5817 10.2296 57.8378 9.6957 59.3451 9.6957C60.3306 9.6957 61.2195 9.87368 62.0118 10.4274C62.8041 10.9811 63.4418 11.6139 63.7896 12.4247L66.0119 11.1591C65.3935 9.97256 64.5046 8.98378 63.3452 8.25209C62.1857 7.52039 60.8523 7.16443 59.3451 7.16443C57.0262 7.16443 55.171 7.97523 53.6637 9.5375C52.2338 11.08 51.4415 13.0773 51.4415 15.3515C51.4415 17.7246 52.1565 19.623 53.6637 21.1655C55.171 22.708 57.0455 23.5386 59.3451 23.5386C60.775 23.5386 62.1084 23.1826 63.4418 22.1741C64.6012 21.4424 65.5674 20.4536 66.2051 19.2671L63.9829 17.9026C63.5384 18.6936 62.92 19.4253 62.1084 19.8801Z" fill="white"/>
<path d="M75.1711 15.1542L82.379 7.69885H78.9973L72.5044 14.5214V1.50909H69.8376V23.1633H72.5044V15.7871L79.4418 23.1633H82.7269L75.1711 15.1542Z" fill="white"/>
<path d="M98.7262 11.9701C100.233 10.8825 101.045 9.33998 100.948 7.42175C100.948 5.78037 100.407 4.33676 99.2672 3.22932C98.1078 2.04279 96.7744 1.50885 95.0932 1.50885H86.6486V23.1433H95.8082C97.4894 23.1433 99.016 22.5896 100.156 21.4228C101.316 20.2363 101.934 18.7927 101.934 17.0524C101.934 15.8659 101.586 14.8771 101.045 13.9675C100.504 13.1567 99.6924 12.425 98.7262 11.9701ZM89.3926 4.23788H95.0739C95.9628 4.23788 96.6778 4.51474 97.2962 5.14756C97.9146 5.78037 98.1851 6.61095 98.1851 7.52062C98.1851 8.4303 97.9146 9.2411 97.2962 9.89369C96.6778 10.5265 95.9628 10.9022 95.0739 10.9022H89.3926V4.23788ZM98.1851 19.4255C97.5667 20.0583 96.7551 20.4341 95.7889 20.4341H89.4892V13.4335H95.7889C96.7744 13.4335 97.5667 13.7895 98.1851 14.4421C98.8035 15.0749 99.1706 15.9055 99.1706 16.8942C99.1706 17.883 98.8035 18.7927 98.1851 19.4255Z" fill="white"/>
<path d="M114.09 1.5094H106.36V23.1439H109.201V15.4314H114.09C116.041 15.4314 117.645 14.6997 118.979 13.4341C120.312 12.1684 120.93 10.5271 120.93 8.52973C120.93 6.53239 120.312 4.89102 118.979 3.52651C117.645 2.16199 116.061 1.5094 114.09 1.5094ZM117.027 11.5158C116.235 12.3266 115.249 12.7024 114.09 12.7024L109.201 12.8013V4.23843H114.09C115.249 4.23843 116.215 4.59439 117.027 5.42496C117.819 6.23576 118.186 7.24432 118.186 8.50995C118.186 9.69649 117.839 10.705 117.027 11.5158Z" fill="white"/>
<path d="M142.091 1.5094L135.424 12.9792L128.68 1.5094H125.472V23.1637H128.313V6.33464L135.25 18.0616H135.598L142.536 6.25554V23.1637H145.28V1.5094H142.091Z" fill="white"/>
<path d="M12.7168 15.7865V23.5979H21.432L12.7168 15.7865Z" fill="#FFD800"/>
<path d="M11 3.70486C15.5671 3.70486 19.318 7.47239 19.318 12.0598C19.318 14.0314 18.5989 15.8273 17.53 17.1743L17.4329 17.2719L19.4929 19.0678L19.5901 18.9702C21.106 17.0766 22 14.6561 22 12.0598C21.9806 5.94976 17.0636 1.01099 11 1.01099C4.9364 1.01099 0 5.85216 0 11.9622C0 18.0722 4.91696 23.011 11 23.011V20.3952C6.43286 20.3952 2.68198 16.6277 2.68198 12.0403C2.68198 7.45287 6.43286 3.70486 11 3.70486Z" fill="white"/>
<circle cx="158.5" cy="13.511" r="2.5" fill="white"/>
<path d="M181.068 23.407C177.9 23.407 175.249 22.351 173.115 20.239C170.981 18.105 169.914 15.366 169.914 12.022C169.914 8.67796 170.981 5.94996 173.115 3.83796C175.249 1.70396 177.9 0.636963 181.068 0.636963C184.324 0.636963 186.997 1.93496 189.087 4.53096L187.503 5.55396C186.799 4.58596 185.875 3.81596 184.731 3.24396C183.587 2.64996 182.366 2.35296 181.068 2.35296C178.45 2.35296 176.261 3.25496 174.501 5.05896C172.763 6.86296 171.894 9.18396 171.894 12.022C171.894 14.838 172.763 17.159 174.501 18.985C176.261 20.789 178.45 21.691 181.068 21.691C182.366 21.691 183.587 21.405 184.731 20.833C185.875 20.239 186.799 19.458 187.503 18.49L189.087 19.48C186.975 22.098 184.302 23.407 181.068 23.407Z" fill="white"/>
<path d="M204.989 23.011H203.273V8.58996H194.231V23.011H192.515V7.07196H204.989V23.011Z" fill="white"/>
<path d="M217.266 23.407C214.978 23.407 213.13 22.417 211.722 20.437V29.083H210.006V7.07196H211.722V9.57996C212.316 8.72196 213.097 8.02896 214.065 7.50096C215.055 6.95096 216.122 6.67596 217.266 6.67596C219.4 6.67596 221.116 7.43496 222.414 8.95296C223.734 10.449 224.394 12.473 224.394 15.025C224.394 17.555 223.734 19.59 222.414 21.13C221.116 22.648 219.4 23.407 217.266 23.407ZM216.969 21.856C218.707 21.856 220.071 21.218 221.061 19.942C222.051 18.666 222.546 17.027 222.546 15.025C222.546 13.045 222.051 11.417 221.061 10.141C220.071 8.86496 218.707 8.22696 216.969 8.22696C215.891 8.22696 214.868 8.50196 213.9 9.05196C212.932 9.60196 212.206 10.273 211.722 11.065V18.952C212.206 19.744 212.932 20.426 213.9 20.998C214.89 21.57 215.913 21.856 216.969 21.856Z" fill="white"/>
<path d="M240.247 23.011H238.531V21.13C237.145 22.648 235.341 23.407 233.119 23.407C231.645 23.407 230.347 22.934 229.225 21.988C228.103 21.02 227.542 19.722 227.542 18.094C227.542 16.444 228.092 15.157 229.192 14.233C230.314 13.287 231.623 12.814 233.119 12.814C235.363 12.814 237.167 13.573 238.531 15.091V11.857C238.531 10.713 238.124 9.82196 237.31 9.18396C236.496 8.52396 235.473 8.19396 234.241 8.19396C232.283 8.19396 230.622 8.97496 229.258 10.537L228.301 9.34896C229.951 7.56696 231.997 6.67596 234.439 6.67596C236.155 6.67596 237.552 7.10496 238.63 7.96296C239.708 8.82096 240.247 10.097 240.247 11.791V23.011ZM233.713 22.054C235.803 22.054 237.409 21.328 238.531 19.876V16.378C237.387 14.904 235.781 14.167 233.713 14.167C232.415 14.167 231.359 14.541 230.545 15.289C229.753 16.037 229.357 16.983 229.357 18.127C229.357 19.271 229.753 20.217 230.545 20.965C231.359 21.691 232.415 22.054 233.713 22.054Z" fill="white"/>
<path d="M253.595 23.011H245.279V7.07196H253.463C254.783 7.07196 255.828 7.44596 256.598 8.19396C257.39 8.91996 257.786 9.90996 257.786 11.164C257.786 12.066 257.533 12.847 257.027 13.507C256.543 14.145 255.949 14.574 255.245 14.794C256.037 15.014 256.708 15.498 257.258 16.246C257.808 16.994 258.083 17.808 258.083 18.688C258.083 20.03 257.676 21.086 256.862 21.856C256.07 22.626 254.981 23.011 253.595 23.011ZM253.232 21.46C254.178 21.46 254.915 21.207 255.443 20.701C255.993 20.173 256.268 19.458 256.268 18.556C256.268 17.742 255.993 17.038 255.443 16.444C254.915 15.85 254.178 15.553 253.232 15.553H246.995V21.46H253.232ZM253.166 14.035C254.068 14.035 254.761 13.782 255.245 13.276C255.751 12.77 256.004 12.121 256.004 11.329C256.004 10.493 255.751 9.83296 255.245 9.34896C254.761 8.84296 254.068 8.58996 253.166 8.58996H246.995V14.035H253.166Z" fill="white"/>
<path d="M276.167 23.011H273.857L267.488 15.421L264.518 18.226V23.011H262.802V7.07196H264.518V16.18L273.923 7.07196H276.2L268.775 14.266L276.167 23.011Z" fill="white"/>
<path d="M290.98 23.011H289.264V21.13C287.878 22.648 286.074 23.407 283.852 23.407C282.378 23.407 281.08 22.934 279.958 21.988C278.836 21.02 278.275 19.722 278.275 18.094C278.275 16.444 278.825 15.157 279.925 14.233C281.047 13.287 282.356 12.814 283.852 12.814C286.096 12.814 287.9 13.573 289.264 15.091V11.857C289.264 10.713 288.857 9.82196 288.043 9.18396C287.229 8.52396 286.206 8.19396 284.974 8.19396C283.016 8.19396 281.355 8.97496 279.991 10.537L279.034 9.34896C280.684 7.56696 282.73 6.67596 285.172 6.67596C286.888 6.67596 288.285 7.10496 289.363 7.96296C290.441 8.82096 290.98 10.097 290.98 11.791V23.011ZM284.446 22.054C286.536 22.054 288.142 21.328 289.264 19.876V16.378C288.12 14.904 286.514 14.167 284.446 14.167C283.148 14.167 282.092 14.541 281.278 15.289C280.486 16.037 280.09 16.983 280.09 18.127C280.09 19.271 280.486 20.217 281.278 20.965C282.092 21.691 283.148 22.054 284.446 22.054Z" fill="white"/>
</svg>
