<svg width="338" height="38" viewBox="0 0 338 38" fill="none" xmlns="http://www.w3.org/2000/svg">
<path d="M250.173 5.41797C248.142 5.41797 246.425 6.09521 245.034 7.44971C243.642 8.8042 242.946 10.437 242.946 12.3481C242.946 14.2593 243.642 15.9014 245.034 17.2559C246.425 18.6104 248.142 19.2876 250.173 19.2876C250.86 19.2876 251.528 19.1948 252.177 19C252.827 18.8145 253.346 18.6011 253.745 18.3691C254.144 18.1372 254.515 17.8682 254.868 17.562C255.22 17.2559 255.443 17.0425 255.545 16.9219C255.647 16.8013 255.721 16.6992 255.777 16.625L254.061 14.8159L253.912 15.0107C253.81 15.1499 253.652 15.3076 253.43 15.4932C253.207 15.6787 252.947 15.8643 252.66 16.0498C252.363 16.2354 252.001 16.3931 251.556 16.5229C251.11 16.6528 250.656 16.7178 250.173 16.7178C248.93 16.7178 247.891 16.3003 247.056 15.4653C246.221 14.6304 245.804 13.5913 245.804 12.3481C245.804 11.105 246.221 10.0659 247.056 9.23096C247.891 8.396 248.93 7.97852 250.173 7.97852C250.619 7.97852 251.064 8.05273 251.5 8.19189C251.927 8.33105 252.279 8.47949 252.548 8.64648C252.808 8.81348 253.059 8.99902 253.281 9.2124C253.504 9.43506 253.652 9.5835 253.717 9.67627C253.782 9.76904 253.838 9.83398 253.875 9.88037L255.684 8.07129L255.471 7.79297C255.332 7.6167 255.109 7.39404 254.793 7.13428C254.478 6.87451 254.125 6.61475 253.717 6.35498C253.309 6.09521 252.799 5.88184 252.168 5.69629C251.537 5.51074 250.869 5.41797 250.173 5.41797Z" fill="white"/>
<path d="M269.359 5.69629H258.05V19H260.907V8.26611H266.511V19H269.359V5.69629Z" fill="white"/>
<path d="M272.782 5.69629V19H275.64V14.6304H278.386C279.759 14.6304 280.891 14.2036 281.791 13.3501C282.681 12.4966 283.136 11.4297 283.136 10.168C283.136 8.90625 282.681 7.83936 281.781 6.98584C280.881 6.13232 279.75 5.70557 278.386 5.70557L272.782 5.69629ZM278.293 8.27539C278.859 8.27539 279.332 8.45166 279.712 8.82275C280.093 9.19385 280.288 9.63916 280.288 10.1772C280.288 10.7061 280.093 11.1514 279.712 11.5225C279.332 11.8843 278.859 12.0698 278.293 12.0698H275.64V8.27539H278.293Z" fill="white"/>
<path d="M291.393 13.3965H288.155L289.778 9.02686L291.393 13.3965ZM292.339 15.8643L293.48 19H296.523L291.291 5.69629H288.257L283.024 19H286.067L287.208 15.8643H292.339Z" fill="white"/>
<path d="M304.455 19C305.772 19 306.849 18.6196 307.702 17.8496C308.546 17.0889 308.973 16.1704 308.973 15.1035C308.973 14.6768 308.89 14.2778 308.732 13.9067C308.574 13.5356 308.398 13.2388 308.212 13.0161C308.018 12.8027 307.795 12.6079 307.544 12.4224C307.285 12.2368 307.108 12.1255 307.016 12.0791C306.923 12.0327 306.839 11.9956 306.784 11.9678L306.941 11.875C307.034 11.8193 307.164 11.708 307.312 11.5596C307.461 11.4111 307.619 11.2256 307.776 11.0122C307.925 10.8081 308.055 10.5391 308.157 10.2236C308.25 9.9082 308.305 9.56494 308.305 9.2124C308.305 8.28467 307.906 7.45898 307.118 6.75391C306.329 6.04883 305.336 5.69629 304.13 5.69629H298.425V19H304.455ZM301.282 16.625V13.2017H304.316C304.835 13.2017 305.262 13.3687 305.605 13.7026C305.949 14.0366 306.125 14.4355 306.125 14.918C306.125 15.4004 305.949 15.8086 305.605 16.1333C305.262 16.4673 304.835 16.625 304.316 16.625H301.282ZM303.936 8.07129C304.399 8.07129 304.771 8.20117 305.049 8.46094C305.318 8.7207 305.457 9.07324 305.457 9.5C305.457 9.93604 305.318 10.2793 305.049 10.5391C304.771 10.7988 304.399 10.9287 303.936 10.9287H301.282V8.07129H303.936Z" fill="white"/>
<path d="M314.493 5.69629H311.636V19H314.493V15.1963L316.2 13.3037L320.097 19H323.418L318.102 11.207L323.038 5.69629H319.716L314.493 11.4946V5.69629Z" fill="white"/>
<path d="M331.972 13.3965H328.734L330.357 9.02686L331.972 13.3965ZM332.918 15.8643L334.059 19H337.102L331.87 5.69629H328.836L323.604 19H326.646L327.788 15.8643H332.918Z" fill="white"/>
<path d="M23.9247 32.0017H19L24.9587 37.9604C32.2395 37.4272 38 31.3388 38 23.9247V19H32.0017V23.9247C32.0017 28.3775 28.3775 32.0017 23.9247 32.0017Z" fill="#5082E6"/>
<path d="M32.0017 14.0789V19L37.9604 13.0413C37.4272 5.76413 31.3388 0 23.9247 0H19V5.99829H23.9247C28.3775 5.99829 32.0017 9.62249 32.0017 14.0789Z" fill="#FABE00"/>
<path d="M14.0789 5.99959H19L13.0413 0.0445251C5.76413 0.574104 0 6.66607 0 14.0802V19.0049H5.99829V14.0802C5.99829 9.62378 9.62249 5.99959 14.0789 5.99959Z" fill="#E62D32"/>
<path d="M5.99815 23.9247V19L0.0430908 24.9587C0.576272 32.2395 6.66463 38 14.0787 38H19.0035V32.0017H14.0787C9.62235 32.0017 5.99815 28.3775 5.99815 23.9247Z" fill="#5AD2FF"/>
<path fill-rule="evenodd" clip-rule="evenodd" d="M183.064 17.9355C183.188 17.9603 183.361 18.016 183.584 18.1025C183.819 18.1768 184.221 18.3809 184.79 18.7148C185.359 19.0365 185.86 19.4199 186.293 19.8652C186.726 20.3105 187.116 20.9538 187.462 21.7949C187.821 22.6237 188 23.5576 188 24.5967C188 26.6995 187.177 28.5241 185.532 30.0703C183.887 31.6042 181.735 32.3711 179.075 32.3711C177.937 32.3711 176.855 32.235 175.828 31.9629C174.801 31.6784 173.954 31.3506 173.286 30.9795C172.631 30.596 172.049 30.2064 171.542 29.8105C171.035 29.4147 170.67 29.0807 170.447 28.8086L170.132 28.3818L172.043 26.4893C172.092 26.5635 172.179 26.681 172.303 26.8418C172.426 26.9902 172.705 27.25 173.138 27.6211C173.571 27.9798 174.041 28.3076 174.548 28.6045C175.055 28.889 175.711 29.1488 176.515 29.3838C177.331 29.6064 178.185 29.7178 179.075 29.7178C181.005 29.7178 182.533 29.2292 183.658 28.252C184.784 27.2747 185.347 26.0563 185.347 24.5967C185.347 23.1742 184.765 21.9619 183.603 20.96C182.452 19.958 180.943 19.457 179.075 19.457H176.403V16.8037H179.075C180.671 16.8037 181.92 16.377 182.823 15.5234C183.739 14.6576 184.196 13.501 184.196 12.0537C184.196 10.792 183.732 9.74674 182.805 8.91797C181.889 8.08919 180.646 7.6748 179.075 7.6748C178.345 7.6748 177.628 7.77995 176.923 7.99023C176.23 8.18815 175.655 8.44173 175.197 8.75098C174.74 9.04785 174.338 9.35091 173.991 9.66016C173.657 9.95703 173.41 10.2106 173.249 10.4209L172.989 10.7178L171.097 8.62109C171.171 8.52214 171.276 8.39225 171.412 8.23145C171.548 8.07064 171.864 7.78613 172.358 7.37793C172.853 6.96973 173.385 6.611 173.954 6.30176C174.523 5.98014 175.271 5.68945 176.199 5.42969C177.127 5.15755 178.086 5.02148 179.075 5.02148C181.401 5.02148 183.312 5.70801 184.809 7.08105C186.305 8.44173 187.054 10.0993 187.054 12.0537C187.054 12.9196 186.911 13.7051 186.627 14.4102C186.355 15.1152 186.021 15.6781 185.625 16.0986C185.229 16.5192 184.84 16.8779 184.456 17.1748C184.085 17.4593 183.757 17.6634 183.473 17.7871L183.064 17.9355ZM201.656 14.8926C204.217 14.8926 206.344 15.7337 208.039 17.416C209.746 19.0859 210.6 21.1641 210.6 23.6504C210.6 26.1243 209.734 28.1963 208.002 29.8662C206.283 31.5361 204.105 32.3711 201.471 32.3711C198.836 32.3711 196.659 31.5361 194.939 29.8662C193.22 28.1963 192.36 26.1182 192.36 23.6318C192.36 22.667 192.515 21.7145 192.824 20.7744C193.146 19.8219 193.455 19.1045 193.752 18.6221L194.253 17.9355L202.231 5.39258H205.089L198.817 15.2822C199.547 15.0225 200.493 14.8926 201.656 14.8926ZM206.035 28.0479C207.173 26.9346 207.742 25.4688 207.742 23.6504C207.742 21.8197 207.173 20.3477 206.035 19.2344C204.897 18.1211 203.376 17.5645 201.471 17.5645C199.578 17.5645 198.057 18.1211 196.906 19.2344C195.768 20.3477 195.199 21.8197 195.199 23.6504C195.199 25.4688 195.768 26.9346 196.906 28.0479C198.057 29.1611 199.578 29.7178 201.471 29.7178C203.376 29.7178 204.897 29.1611 206.035 28.0479ZM230.843 17.416C229.148 15.7337 227.021 14.8926 224.46 14.8926C223.495 14.8926 222.567 15.0348 221.677 15.3193C220.799 15.5915 220.223 15.8203 219.951 16.0059C219.679 16.179 219.469 16.3151 219.32 16.4141L219.896 8.06445H231.678V5.39258H217.428L216.481 20.4033H218.56L219.135 19.6797C219.518 19.2344 220.205 18.7705 221.194 18.2881C222.184 17.8057 223.272 17.5645 224.46 17.5645C226.254 17.5645 227.713 18.1273 228.839 19.2529C229.977 20.3786 230.546 21.8382 230.546 23.6318C230.546 25.4626 229.977 26.9346 228.839 28.0479C227.701 29.1611 226.179 29.7178 224.274 29.7178C223.409 29.7178 222.58 29.6064 221.788 29.3838C221.009 29.1488 220.378 28.889 219.896 28.6045C219.413 28.3076 218.955 27.9798 218.522 27.6211C218.102 27.25 217.824 26.9902 217.688 26.8418C217.564 26.681 217.477 26.5635 217.428 26.4893L215.535 28.3818L215.869 28.8086C216.067 29.0807 216.413 29.4147 216.908 29.8105C217.403 30.2064 217.972 30.596 218.615 30.9795C219.271 31.3506 220.106 31.6784 221.12 31.9629C222.134 32.235 223.186 32.3711 224.274 32.3711C227.008 32.3711 229.21 31.5609 230.88 29.9404C232.55 28.32 233.385 26.2171 233.385 23.6318C233.385 21.1579 232.537 19.0859 230.843 17.416ZM76.7411 27.0003V32H57V6H76.3547V11.0249H62.6497V16.23H73.344V21.2333H62.6497V27.0003H76.7411ZM83 31.9964V6H88.6497V26.9931H100.849V31.9964H83ZM134.176 6H129.186L120.088 17.3322L111.081 6H106V32H111.65V14.7387L120.088 25.3073L128.544 14.6667V32H134.176V6ZM146.578 25.8728L144.322 32H138.304L148.652 6H154.652L165 32H158.982L156.726 25.8728H146.578ZM151.663 12.509L148.452 21.0496H154.856L151.663 12.509Z" fill="white"/>
</svg>
