<svg width="28" height="34" viewBox="0 0 28 34" fill="none" xmlns="http://www.w3.org/2000/svg">
<path fill-rule="evenodd" clip-rule="evenodd" d="M15 26.9621C21.7124 26.4515 27 20.8432 27 14C27 6.8203 21.1797 1 14 1C6.8203 1 1 6.8203 1 14C1 19.3876 4.27731 24.0097 8.94707 25.9815L15 32.5V26.9621Z" fill="white"/>
<path d="M15 26.9621L14.9526 26.3389C14.6267 26.3637 14.375 26.6353 14.375 26.9621H15ZM8.94707 25.9815L9.40507 25.5562C9.3449 25.4914 9.27166 25.4401 9.19019 25.4057L8.94707 25.9815ZM15 32.5L14.542 32.9253C14.7169 33.1136 14.9892 33.1757 15.2284 33.0818C15.4677 32.9878 15.625 32.757 15.625 32.5H15ZM26.375 14C26.375 20.5139 21.3417 25.8529 14.9526 26.3389L15.0474 27.5853C22.0832 27.0501 27.625 21.1725 27.625 14H26.375ZM14 1.625C20.8345 1.625 26.375 7.16548 26.375 14H27.625C27.625 6.47512 21.5249 0.375 14 0.375V1.625ZM1.625 14C1.625 7.16548 7.16548 1.625 14 1.625V0.375C6.47512 0.375 0.375 6.47512 0.375 14H1.625ZM9.19019 25.4057C4.7437 23.5282 1.625 19.1276 1.625 14H0.375C0.375 19.6476 3.81093 24.4912 8.70395 26.5572L9.19019 25.4057ZM15.458 32.0747L9.40507 25.5562L8.48908 26.4067L14.542 32.9253L15.458 32.0747ZM14.375 26.9621V32.5H15.625V26.9621H14.375Z" fill="#233255"/>
<path d="M13.4485 20.3513L12.2832 21.5166L13.4485 22.6819L14.6139 21.5166L13.4485 20.3513Z" fill="#233255"/>
<path d="M12.656 18.5297V18.5893H12.7156H13.7567H13.8163V18.5297V17.7003C13.8163 17.1685 13.8779 16.7152 13.9996 16.339C14.1208 15.9643 14.3277 15.6162 14.6215 15.2946C14.9222 14.9716 15.3332 14.6303 15.8556 14.2707L15.8559 14.2705C16.4339 13.8682 16.9058 13.4705 17.2705 13.0772C17.6361 12.6832 17.9056 12.265 18.078 11.8226L18.0781 11.8224C18.2502 11.3747 18.336 10.8849 18.336 10.3537C18.336 9.50882 18.136 8.75323 17.735 8.08859C17.3401 7.42468 16.7933 6.90383 16.0958 6.52649C15.3976 6.14307 14.6004 5.95213 13.7059 5.95213C12.8166 5.95213 12.0138 6.14888 11.2989 6.54347C10.5844 6.93221 10.0153 7.47563 9.5923 8.17295L9.59212 8.17326C9.17427 8.87159 8.95753 9.67477 8.94043 10.5811L8.93928 10.6418H9H10.0749H10.1331L10.1345 10.5836C10.1512 9.85875 10.3211 9.23163 10.6422 8.70018C10.9642 8.16722 11.3911 7.7543 11.9234 7.46042C12.4556 7.1666 13.0494 7.01925 13.7059 7.01925C14.3628 7.01925 14.951 7.16114 15.4718 7.4437L15.4718 7.4437L15.4725 7.44405C15.9992 7.72127 16.4143 8.10884 16.719 8.60733L16.719 8.60734L16.7194 8.608C17.0287 9.09963 17.1842 9.66956 17.1842 10.3198C17.1842 10.736 17.1121 11.1175 16.9686 11.4651L16.9683 11.4658C16.8305 11.8131 16.6095 12.1481 16.3035 12.4708C15.9968 12.7886 15.5997 13.1161 15.1113 13.4529C14.5334 13.8382 14.0643 14.2218 13.705 14.6039C13.3437 14.9824 13.0796 15.4158 12.9131 15.9036C12.7468 16.3911 12.6617 16.9904 12.656 17.6998V17.7003V18.5297Z" fill="#233255" stroke="#233255" stroke-width="0.119171"/>
</svg>
