<svg width="18" height="20" viewBox="0 0 18 20" fill="none" xmlns="http://www.w3.org/2000/svg">
<path fill-rule="evenodd" clip-rule="evenodd" d="M13.3982 7.72974C13.3982 10.8604 10.8604 13.3982 7.72974 13.3982C4.59913 13.3982 2.06126 10.8604 2.06126 7.72974C2.06126 4.59913 4.59913 2.06126 7.72974 2.06126C10.8604 2.06126 13.3982 4.59913 13.3982 7.72974ZM11.4286 14.5187C10.33 15.1186 9.06966 15.4595 7.72974 15.4595C3.46072 15.4595 0 11.9988 0 7.72974C0 3.46072 3.46072 0 7.72974 0C11.9988 0 15.4595 3.46072 15.4595 7.72974C15.4595 9.91669 14.5513 11.8915 13.0914 13.2976L17.4232 18.7123L15.8136 20L11.4286 14.5187Z" fill="#9C9C9C"/>
</svg>
