<svg width="24" height="24" viewBox="0 0 24 24" fill="none" xmlns="http://www.w3.org/2000/svg">
<path fill-rule="evenodd" clip-rule="evenodd" d="M22.4724 6.88029C22.6315 6.37329 22.4724 6 21.7106 6H19.195C18.5549 6 18.2597 6.32221 18.0997 6.67786C18.0997 6.67786 16.8203 9.64557 15.0081 11.5733C14.4217 12.1323 14.1552 12.3096 13.8352 12.3096C13.6751 12.3096 13.4346 12.1323 13.4346 11.6244V6.88029C13.4346 6.27114 13.2583 6 12.7254 6H8.76952C8.36991 6 8.12937 6.28229 8.12937 6.55064C8.12937 7.12729 9.03594 7.261 9.12889 8.88414V12.4109C9.12889 13.1844 8.98227 13.3246 8.66219 13.3246C7.80929 13.3246 5.73455 10.3429 4.50311 6.93136C4.26449 6.26743 4.023 6 3.37997 6H0.862482C0.143747 6 0 6.32221 0 6.67786C0 7.31114 0.852899 10.4571 3.97221 14.6181C6.05175 17.4595 8.97939 19 11.6464 19C13.2458 19 13.4432 18.6583 13.4432 18.0686V15.9209C13.4432 15.2365 13.5946 15.1 14.1016 15.1C14.4753 15.1 15.1145 15.2783 16.6076 16.6479C18.3134 18.272 18.5942 19 19.5544 19H22.07C22.7887 19 23.149 18.6583 22.942 17.9823C22.7139 17.31 21.8994 16.3341 20.8194 15.1761C20.2329 14.5169 19.3531 13.8065 19.0858 13.4509C18.713 12.9949 18.8194 12.7916 19.0858 12.3858C19.0858 12.3858 22.1524 8.27593 22.4715 6.88029H22.4724Z" fill="#C0BEBE"/>
</svg>
