<svg width="16" height="16" viewBox="0 0 16 16" fill="none" xmlns="http://www.w3.org/2000/svg">
<path d="M0 8.9441C0 10.4348 1.4 11.0311 2.2 11.0311H4.4C4 12.0248 3.7 13.2174 3.9 14.1118C4.4 15.9006 5.9 16 6.4 16H6.5C6.9 16 7.1 15.8012 7.3 15.5031L8.3 12.7205L11 10.0373H16V1.09317H11V2.08696C10.8 2.08696 10.3 1.78882 9.8 1.49068C8.6 0.89441 6.9 0 5.3 0C2.9 0 2.1 0.298137 1.5 1.29193C1.2 1.8882 1.2 2.38509 1.2 2.68323C1 2.88199 0.700001 3.18013 0.6 3.67702C0.5 4.17391 0.5 4.47205 0.6 4.77019C0.400001 5.06832 0.200001 5.46584 0.1 6.06211C0.1 6.55901 0.2 6.95652 0.3 7.25466C0.2 7.65217 0 8.14907 0 8.9441ZM13.5 2.58385C14.1 2.58385 14.5 2.98137 14.5 3.57764C14.5 4.17391 14.1 4.57143 13.5 4.57143C12.9 4.57143 12.5 4.17391 12.5 3.57764C12.5 2.98137 12.9 2.58385 13.5 2.58385ZM1.3 6.95652C1.3 6.95652 1.1 6.75776 1.1 6.26087C1.1 5.6646 1.5 5.36646 1.5 5.36646L1.8 5.06832L1.6 4.77019C1.6 4.77019 1.4 4.47205 1.6 4.07453C1.7 3.67702 2.1 3.37888 2.1 3.37888L2.4 3.08075L2.2 2.68323C2.2 2.68323 2 2.28572 2.3 1.78882C2.5 1.3913 2.7 1.09317 5.2 1.09317C6.6 1.09317 8.2 1.8882 9.3 2.48447C10.1 2.88199 10.6 3.08075 11 3.08075V9.04348H10.9C10.7 9.04348 10.5 9.14286 10.3 9.24224L7.5 12.0248C7.4 12.1242 7.4 12.2236 7.3 12.323L6.3 15.0062C5.8 15.0062 5.1 14.8075 4.9 13.913C4.8 13.3168 5 12.323 5.5 11.1304C5.6 10.8323 5.6 10.6335 5.4 10.3354C5.3 10.1366 5 10.0373 4.7 10.0373H2.2C2.1 10.0373 1 9.83851 1 8.9441C1 8.14907 1.3 7.75155 1.3 7.75155L1.6 7.35404L1.3 6.95652Z" fill="#394149"/>
</svg>
