<svg width="32" height="32" viewBox="0 0 32 32" fill="none" xmlns="http://www.w3.org/2000/svg">
<g clip-path="url(#clip0)">
<path fill-rule="evenodd" clip-rule="evenodd" d="M20.3021 10.5551L17.2545 7.50747L17.7932 6.96872L20.8408 10.0163L20.3021 10.5551Z" fill="#394149"/>
<path fill-rule="evenodd" clip-rule="evenodd" d="M17.7932 10.5551L20.8408 7.50747L20.302 6.96872L17.2544 10.0163L17.7932 10.5551Z" fill="#394149"/>
<path fill-rule="evenodd" clip-rule="evenodd" d="M15.619 10.2857H4.95238V9.5238H15.619V10.2857Z" fill="#394149"/>
<path fill-rule="evenodd" clip-rule="evenodd" d="M19.4286 16.381H4.95238V15.619H19.4286V16.381Z" fill="#394149"/>
<path fill-rule="evenodd" clip-rule="evenodd" d="M19.4286 13.3333H4.95238V12.5714H19.4286V13.3333Z" fill="#394149"/>
<path fill-rule="evenodd" clip-rule="evenodd" d="M17.9048 19.4286H4.95238V18.6667H17.9048V19.4286Z" fill="#394149"/>
<path fill-rule="evenodd" clip-rule="evenodd" d="M2.66667 5.33335H21.7143C21.9247 5.33335 22.0952 5.5039 22.0952 5.7143V16.0004L22.8571 15.2385V5.7143C22.8571 5.08312 22.3455 4.57144 21.7143 4.57144H2.66667C2.03549 4.57144 1.52381 5.08312 1.52381 5.7143V22.0952C1.52381 22.7264 2.03549 23.2381 2.66667 23.2381H16.7623V22.4762H2.66667C2.45627 22.4762 2.28572 22.3056 2.28572 22.0952V5.7143C2.28572 5.5039 2.45627 5.33335 2.66667 5.33335Z" fill="#394149"/>
<path fill-rule="evenodd" clip-rule="evenodd" d="M30.8306 16.5278L28.2155 13.9182C28.0664 13.7694 27.8247 13.7694 27.6757 13.9182L26.7197 14.8722L29.8746 18.0206L30.8306 17.0666C30.9797 16.9178 30.9797 16.6766 30.8306 16.5278ZM19.5428 22.0342L25.0734 16.515L28.2283 19.6635L22.6977 25.1826C22.5487 25.3314 22.307 25.3314 22.1579 25.1826L19.5428 22.5729C19.3937 22.4242 19.3937 22.183 19.5428 22.0342ZM28.7554 13.3794C28.3081 12.9331 27.583 12.9331 27.1358 13.3794L19.0029 21.4955C18.7839 21.7141 18.6721 21.9992 18.6676 22.2857H18.6673V25.3334C18.6673 25.7541 19.0084 26.0953 19.4292 26.0953H22.4768V26.0551C22.7534 26.0433 23.0265 25.9321 23.2376 25.7214L31.3705 17.6053C31.8177 17.159 31.8177 16.4354 31.3705 15.9891L28.7554 13.3794ZM21.2292 25.3334L19.4292 23.5371V25.3334H21.2292ZM29.3347 18.5593L26.2454 15.4764L25.6789 16.0418L28.7681 19.1247L29.3347 18.5593Z" fill="#2574B7"/>
</g>
<defs>
<clipPath id="clip0">
<rect width="32" height="32" fill="white"/>
</clipPath>
</defs>
</svg>
