<svg width="24" height="24" viewBox="0 0 24 24" fill="none" xmlns="http://www.w3.org/2000/svg">
<path d="M19.4864 7.18219C19.4066 6.86556 19.1798 6.6265 18.9205 6.55319C18.4606 6.4225 16.2253 6.125 11.5005 6.125C6.77576 6.125 4.54147 6.4225 4.07845 6.55319C3.82226 6.62544 3.59547 6.8645 3.51462 7.18219C3.40018 7.63269 3.10094 9.51969 3.10094 12.5C3.10094 15.4792 3.40018 17.3663 3.51462 17.8189C3.59442 18.1344 3.82121 18.3735 4.0795 18.4458C4.54147 18.5775 6.77471 18.875 11.4995 18.875C16.2242 18.875 18.4596 18.5775 18.9216 18.4468C19.1777 18.3746 19.4045 18.1355 19.4854 17.8178C19.6009 17.3673 19.8991 15.475 19.8991 12.5C19.8991 9.525 19.6009 7.63375 19.4864 7.18219ZM21.5202 6.65413C22 8.5475 22 12.5 22 12.5C22 12.5 22 16.4525 21.5202 18.3459C21.2535 19.3924 20.4734 20.2159 19.4854 20.4942C17.691 21 11.4995 21 11.4995 21C11.4995 21 5.31213 21 3.51462 20.4942C2.52242 20.2116 1.74336 19.3893 1.47983 18.3459C1 16.4525 1 12.5 1 12.5C1 12.5 1 8.5475 1.47983 6.65413C1.74651 5.60756 2.52662 4.78412 3.51462 4.50575C5.31318 4 11.5005 4 11.5005 4C11.5005 4 17.691 4 19.4854 4.50575C20.4765 4.78837 21.2566 5.61075 21.5202 6.65413ZM9.40063 16.2188V8.78125L15.7003 12.5L9.40063 16.2188Z" fill="#C0BEBE"/>
</svg>
