<svg width="16" height="16" viewBox="0 0 16 16" fill="none" xmlns="http://www.w3.org/2000/svg">
<path d="M16 7.0559C16 5.56522 14.6 4.96894 13.8 4.96894H11.6C12 3.97516 12.3 2.78261 12.1 1.8882C11.6 0.0993789 10.1 0 9.6 0H9.5C9.1 0 8.9 0.198758 8.7 0.496894L7.7 3.2795L5 5.96273H0V14.9068H5V13.913C5.2 13.913 5.7 14.2112 6.2 14.5093C7.4 15.1056 9.1 16 10.7 16C13.1 16 13.9 15.7019 14.5 14.7081C14.8 14.1118 14.8 13.6149 14.8 13.3168C15 13.118 15.3 12.8199 15.4 12.323C15.5 11.8261 15.5 11.528 15.4 11.2298C15.6 10.9317 15.8 10.5342 15.9 9.93789C15.9 9.44099 15.8 9.04348 15.7 8.74534C15.8 8.34783 16 7.85093 16 7.0559ZM2.5 13.4161C1.9 13.4161 1.5 13.0186 1.5 12.4224C1.5 11.8261 1.9 11.4286 2.5 11.4286C3.1 11.4286 3.5 11.8261 3.5 12.4224C3.5 13.0186 3.1 13.4161 2.5 13.4161ZM14.7 9.04348C14.7 9.04348 14.9 9.24224 14.9 9.73913C14.9 10.3354 14.5 10.6335 14.5 10.6335L14.2 10.9317L14.4 11.2298C14.4 11.2298 14.6 11.528 14.4 11.9255C14.3 12.323 13.9 12.6211 13.9 12.6211L13.6 12.9193L13.8 13.3168C13.8 13.3168 14 13.7143 13.7 14.2112C13.5 14.6087 13.3 14.9068 10.8 14.9068C9.4 14.9068 7.8 14.1118 6.7 13.5155C5.9 13.118 5.4 12.9193 5 12.9193V6.95652H5.1C5.3 6.95652 5.5 6.85714 5.7 6.75776L8.5 3.97516C8.6 3.87578 8.6 3.7764 8.7 3.67702L9.7 0.993789C10.2 0.993789 10.9 1.19255 11.1 2.08696C11.2 2.68323 11 3.67702 10.5 4.86957C10.4 5.1677 10.4 5.36646 10.6 5.6646C10.7 5.86335 11 5.96273 11.3 5.96273H13.8C13.9 5.96273 15 6.16149 15 7.0559C15 7.85093 14.7 8.24845 14.7 8.24845L14.4 8.64596L14.7 9.04348Z" fill="#394149"/>
</svg>
