<svg width="20" height="20" viewBox="0 0 20 20" fill="none" xmlns="http://www.w3.org/2000/svg">
<path fill-rule="evenodd" clip-rule="evenodd" d="M2 6C3.10457 6 4 5.10457 4 4C4 2.89543 3.10457 2 2 2C0.895431 2 0 2.89543 0 4C0 5.10457 0.895431 6 2 6ZM20 3H8V5H20V3ZM20 10H8V12H20V10ZM8 17H20V19H8V17ZM4 11C4 12.1046 3.10457 13 2 13C0.895431 13 0 12.1046 0 11C0 9.89543 0.895431 9 2 9C3.10457 9 4 9.89543 4 11ZM2 20C3.10457 20 4 19.1046 4 18C4 16.8954 3.10457 16 2 16C0.895431 16 0 16.8954 0 18C0 19.1046 0.895431 20 2 20Z" fill="#141414"/>
</svg>
